<?xml version="1.0" encoding="UTF-8" standalone="no"?><!DOCTYPE svg PUBLIC "-//W3C//DTD SVG 1.1//EN" "http://www.w3.org/Graphics/SVG/1.1/DTD/svg11.dtd"><svg width="100%" height="100%" viewBox="0 0 555 512" version="1.1" xmlns="http://www.w3.org/2000/svg" xmlns:xlink="http://www.w3.org/1999/xlink" xml:space="preserve" xmlns:serif="http://www.serif.com/" style="fill-rule:evenodd;clip-rule:evenodd;stroke-linejoin:round;stroke-miterlimit:2;"><rect id="Artboard1" x="0" y="0" width="554.256" height="512" style="fill:none;"/><clipPath id="_clip1"><rect x="0" y="0" width="554.256" height="512"/></clipPath><g clip-path="url(#_clip1)"><g id="Ball"><g id="Body"><path d="M222,257l-221.703,-128l0,256l221.703,128l-0,-256Z" style="fill:#8b748d;"/><path d="M222,257l-221.703,-128l221.703,-128l221.703,128l-221.703,128Z" style="fill:#8b748d;"/><path d="M222,257l221.703,-128l-0,256l-221.703,128l-0,-256Z" style="fill:#8b748d;"/></g><g id="L2"><path d="M97.292,249l0,16l-27.712,-16l-0,16l-13.857,-8l0,16l-13.856,-8l-0,64l69.282,40l-0,16l13.856,8l0,16l27.713,16l-0,32l27.713,16l-0,16l41.569,24l-0,-16l152.42,-88l0,-80l13.857,-8l-0,48l41.569,-24l0,-160l-27.713,16l0,96l-27.713,16l0,16l-83.138,48l0,-16l13.856,-8l0,-32l-13.856,8l0,16l-69.282,40l-0,-48l-13.856,-8l-0,16l-27.713,-16l-0,16l-41.569,-24l-0,16l-13.857,-8l0,16l-27.713,-16l0,16l-41.569,-24l0,-48l13.857,8l-0,-16l41.569,24l-0,-16l27.713,16l-0,-16l-41.57,-24Z" style="fill:#7c6783;"/></g><g id="H3"><path d="M277.426,401l-13.857,8l0,16l13.857,-8l-0,-16Z" style="fill:#ad98ad;"/><path d="M55.723,273l13.857,8l-0,-16l41.569,24l-0,-16l27.713,16l-0,-16l27.712,16l0,-16l27.713,16l0,-16l13.857,8l-0,-16l13.856,8l13.856,-8l0,-16l55.426,-32l-13.856,-8l13.856,-8l13.856,8l13.857,-8l-27.713,-16l-13.856,8l-13.857,-8l-27.713,16l-27.712,-16l41.569,-24l-27.713,-16l83.138,-48l83.139,48l13.856,-8l-55.425,-32l13.856,-8l41.569,24l13.857,-8l27.713,16l-0,176l-41.57,24l0,-144l13.857,-8l-0,160l13.856,-8l0,-96l13.857,-8l-0,-80l-13.857,8l0,64l-55.426,32l0,32l-13.856,8l0,48l-55.426,32l0,-16l27.713,-16l0,-16l13.857,-8l-0,-16l13.856,-8l0,-16l-13.856,8l-0,16l-27.713,16l-0,-16l27.713,-16l-0,-16l-27.713,16l-0,16l-83.139,48l0,-16l83.139,-48l-0,-16l-96.995,56l0,-16l124.708,-72l-0,-16l-124.708,72l0,16l-13.856,-8l-0,16l-27.713,-16l-0,16l-13.857,-8l0,16l-41.569,-24l0,16l-41.569,-24l-0,16l-27.713,-16l0,-16Z" style="fill:#ad98ad;"/><path d="M28.01,321l13.857,8l-0,16l69.282,40l-0,32l27.713,16l-0,-16l41.569,24l-0,16l-27.713,-16l-0,16l27.713,16l-0,16l-180.134,-104l0,-64l27.713,16l0,-16Z" style="fill:#ad98ad;"/><path d="M41.867,121l-27.713,16l-0,16l13.856,8l0,32l13.857,8l-0,32l41.569,24l-0,-16l-27.713,-16l0,-32l-13.856,-8l-0,-32l13.856,-8l-13.856,-8l13.856,-8l-13.856,-8Z" style="fill:#ad98ad;"/></g><g id="H2"><path d="M125.005,265l-55.425,-32l-0,-16l-13.857,-8l0,-16l-13.856,-8l-0,-32l13.856,-8l-13.856,-8l13.856,-8l-13.856,-8l55.425,-32l-13.856,-8l69.282,-40l13.856,8l13.857,-8l13.856,8l-13.856,8l55.425,32l27.713,-16l-27.713,-16l-13.856,8l-27.713,-16l13.857,-8l27.712,16l13.857,-8l41.569,24l-27.713,16l13.857,8l-13.857,8l41.569,24l-13.856,8l13.856,8l-13.856,8l-13.856,-8l-13.857,8l69.282,40l13.857,-8l-41.57,-24l13.857,-8l-13.857,-8l13.857,-8l27.713,16l-13.857,8l13.857,8l27.712,-16l-55.425,-32l13.856,-8l-13.856,-8l13.856,-8l-27.713,-16l13.857,-8l-83.139,-48l13.857,-8l83.138,48l-13.856,8l27.713,16l-13.857,8l13.857,8l-13.857,8l69.282,40l-96.995,56l-13.856,-8l-13.856,8l-13.857,-8l27.713,-16l-69.282,-40l-13.856,8l27.712,16l-27.712,16l27.712,16l-13.856,8l-13.856,-8l-13.857,8l27.713,16l-13.856,8l-41.57,-24l-13.856,8l27.713,16l-0,16l-41.569,-24l-0,16l13.856,8l-0,16l-27.713,-16l0,16Z" style="fill:#daced9;"/><path d="M402.133,153l-166.277,96l0,16l110.852,-64l-0,16l13.856,-8l0,32l13.856,-8l0,-48l27.713,-16l0,-16Z" style="fill:#daced9;"/><path d="M222,273l-13.856,-8l-0,16l-13.857,-8l0,16l-27.713,-16l0,16l-27.712,-16l-0,16l-27.713,-16l-0,16l27.713,16l-0,-16l27.712,16l0,-16l27.713,16l0,-16l13.857,8l-0,-16l13.856,8l13.856,-8l0,-16l-13.856,8" style="fill:#daced9;"/><path d="M14.154,361l83.138,48l0,-16l-69.282,-40l0,32l96.995,56l0,16l-110.851,-64l-0,-32Z" style="fill:#daced9;"/></g><g id="L1"><path d="M194.287,33l27.713,-16l96.995,56l-13.857,8l13.857,8l-13.857,8l27.713,16l-13.856,8l-27.713,-16l13.856,-8l-27.712,-16l13.856,-8l-69.282,-40l-13.856,8l-13.857,-8Z" style="fill:#674e6c;"/><path d="M277.426,209l-69.282,40l-13.857,-8l13.857,-8l-41.57,-24l-13.856,8l27.713,16l-0,16l13.856,8l0,16l-27.713,-16l0,16l-41.569,-24l0,16l41.569,24l0,-16l27.713,16l0,-16l13.857,8l-0,-16l13.856,8l13.856,-8l0,-16l55.426,-32l-13.856,-8Z" style="fill:#674e6c;"/><path d="M402.133,233l-13.856,8l-0,96l-13.857,8l0,80l27.713,-16l0,-16l-13.856,8l-0,-48l13.856,-8l0,-112Z" style="fill:#674e6c;"/><path d="M291.282,409l27.713,-16l-0,16l13.856,-8l0,16l-13.856,8l-0,-16l-27.713,16l0,-16Z" style="fill:#674e6c;"/><path d="M415.99,337l-0,-112l13.856,-8l0,112l-13.856,8Z" style="fill:#674e6c;"/><path d="M55.723,289l27.713,16l-0,-16l41.569,24l0,16l-41.569,-24l-0,16l-27.713,-16l0,-16Z" style="fill:#674e6c;"/><path d="M111.149,337l41.569,24l-0,-16l41.569,24l0,16l-41.569,-24l-0,16l-41.569,-24l-0,-16Z" style="fill:#674e6c;"/><path d="M222,353l69.282,-40l0,16l-69.282,40l-0,-16Z" style="fill:#674e6c;"/><path d="M55.723,241l-27.713,-16l0,-16l-13.856,-8l-0,16l13.856,8l0,16l27.713,16l0,-16Z" style="fill:#674e6c;"/><path d="M14.154,249l-0,16l27.713,16l-0,-16l-27.713,-16Z" style="fill:#674e6c;"/><path d="M388.277,113l41.569,24l-13.856,8l-41.57,-24l13.857,-8Z" style="fill:#674e6c;"/><path d="M346.708,105l41.569,24l-13.857,8l-41.569,-24l13.857,-8Z" style="fill:#674e6c;"/><path d="M235.856,457l55.426,-32l0,16l-55.426,32l0,-16Z" style="fill:#674e6c;"/><path d="M305.138,337l-83.138,48l-13.856,-8l-0,16l13.856,8l83.138,-48l0,-16Z" style="fill:#674e6c;"/><path d="M360.564,337l-138.564,80l-55.426,-32l0,16l55.426,32l138.564,-80l0,-16Z" style="fill:#674e6c;"/><path d="M152.718,409l69.282,40l-0,16l-69.282,-40l-0,-16Z" style="fill:#674e6c;"/></g><g id="H1"><path d="M166.574,81l13.857,-8l55.425,32l-13.856,8l-55.426,-32Z" style="fill:#fdfefd;"/><path d="M235.856,121l13.857,-8l55.425,32l-13.856,8l-55.426,-32Z" style="fill:#fdfefd;"/><path d="M249.713,97l-13.857,8l13.857,8l13.856,-8l-13.856,-8Z" style="fill:#fdfefd;"/><path d="M55.723,177l55.426,32l-0,16l-13.857,-8l0,16l-13.856,-8l-0,-16l-27.713,-16l0,-16Z" style="fill:#fdfefd;"/><path d="M83.436,193l-13.856,-8l-0,-16l13.856,-8l27.713,16l-13.857,8l-13.856,-8l-0,16Z" style="fill:#fdfefd;"/><path d="M69.58,153l13.856,-8l96.995,56l-13.857,8l-96.994,-56Z" style="fill:#fdfefd;"/><path d="M111.149,193l-0,16l13.856,8l0,-16l-13.856,-8Z" style="fill:#fdfefd;"/><path d="M97.292,137l96.995,56l13.857,-8l-96.995,-56l13.856,-8l-13.856,-8l13.856,-8l-13.856,-8l-27.713,16l13.856,8l-27.712,16l13.856,8l13.856,-8Z" style="fill:#fdfefd;"/><path d="M125.005,121l13.857,-8l55.425,32l-13.856,8l-55.426,-32Z" style="fill:#fdfefd;"/><path d="M125.005,89l-13.856,-8l27.713,-16l41.569,24l-13.857,8l69.282,40l-27.712,16l-13.857,-8l13.857,-8l-55.426,-32l13.856,-8l-27.712,-16l-13.857,8Z" style="fill:#fdfefd;"/></g></g><g id="BallTail"><path d="M388.277,417l-0,-32l27.713,-16l28.112,15.769l27.713,-15.538l83.139,48l-0,32l-110.852,63.538l-27.712,-16l-0,-32l55.425,-31.538l-27.713,15.538l-55.825,-31.769Z" style="fill:#674e6c;"/><path d="M415.99,369l-27.713,16l-0,16l55.825,31.769l27.713,-15.538l13.857,7.538l-69.282,40l-0,16l27.712,16l110.852,-63.538l-0,-16l-83.139,-48l-27.713,15.538l-28.112,-15.769Z" style="fill:#ad98ad;"/><path d="M388.277,401l-0,16l55.825,31.769l0,-16l-55.825,-31.769Z" style="fill:#8b748d;"/><path d="M444.102,400.769l-41.969,-23.769l13.857,-8l28.112,15.769l13.857,-7.538l13.856,8l-27.713,15.538Z" style="fill:#8b748d;"/><path d="M402.133,377l-13.856,8l55.825,31.769l27.713,-15.538l13.857,8l13.856,-8l-13.856,-8l-13.857,8l-13.856,-8l-13.857,7.538l-41.969,-23.769Z" style="fill:#daced9;"/><path d="M457.959,377.231l13.856,-8l83.139,48l-0,16l-110.852,63.538l0,-16l96.995,-55.538l-83.138,-48Z" style="fill:#7c6783;"/><path d="M416.39,464.769l-0,16l13.856,8l-0,-16l83.138,-47.538l-13.856,-8l-83.138,47.538Z" style="fill:#daced9;"/></g></g></svg>