<?xml version="1.0" encoding="UTF-8" standalone="no"?>
<!DOCTYPE svg PUBLIC "-//W3C//DTD SVG 1.1//EN" "http://www.w3.org/Graphics/SVG/1.1/DTD/svg11.dtd">
<svg width="100%" height="100%" viewBox="0 0 96 96" version="1.1" xmlns="http://www.w3.org/2000/svg" xmlns:xlink="http://www.w3.org/1999/xlink" xml:space="preserve" xmlns:serif="http://www.serif.com/" style="fill-rule:evenodd;clip-rule:evenodd;stroke-linecap:round;stroke-linejoin:round;stroke-miterlimit:1.5;">
    <g transform="matrix(0.086273,0.321975,-0.321975,0.086273,58.1438,21.488)">
        <circle cx="24" cy="24" r="8" style="fill-opacity:0;stroke:rgb(102,144,153);stroke-width:1.57px;"/>
    </g>
    <g transform="matrix(-0.166667,0.288675,-0.288675,-0.166667,51.2855,68.965)">
        <circle cx="24" cy="24" r="8" style="fill-opacity:0;stroke:rgb(102,144,153);stroke-width:1.57px;"/>
    </g>
    <g transform="matrix(0.237474,-0.0636311,0.0636311,0.237474,15.6299,57.8392)">
        <circle cx="24" cy="24" r="8" style="fill-opacity:0;stroke:rgb(102,144,153);stroke-width:2.13px;"/>
    </g>
    <g transform="matrix(1,0,0,1,0,1.44739)">
        <g transform="matrix(0.122926,0.212914,-0.212914,0.122926,72.7763,84.1294)">
            <circle cx="24" cy="24" r="8" style="fill-opacity:0;stroke:rgb(102,144,153);stroke-width:2.13px;"/>
        </g>
        <g transform="matrix(0.122926,0.212914,-0.212914,0.122926,77.8862,81.1792)">
            <circle cx="24" cy="24" r="8" style="fill-opacity:0;stroke:rgb(102,144,153);stroke-width:2.13px;"/>
        </g>
        <g transform="matrix(0.122926,0.212914,-0.212914,0.122926,83.2596,82.619)">
            <circle cx="24" cy="24" r="8" style="fill-opacity:0;stroke:rgb(102,144,153);stroke-width:2.13px;"/>
        </g>
        <g transform="matrix(0.122926,0.212914,-0.212914,0.122926,86.2098,87.7289)">
            <circle cx="24" cy="24" r="8" style="fill-opacity:0;stroke:rgb(102,144,153);stroke-width:2.13px;"/>
        </g>
        <g transform="matrix(0.122926,0.212914,-0.212914,0.122926,78.6061,78.4925)">
            <circle cx="64" cy="48" r="16" style="fill-opacity:0;stroke:rgb(102,144,153);stroke-width:2.13px;"/>
        </g>
    </g>
    <g transform="matrix(1,0,0,1,0,-94.5526)">
        <g transform="matrix(0.122926,0.212914,-0.212914,0.122926,72.7763,84.1294)">
            <circle cx="24" cy="24" r="8" style="fill-opacity:0;stroke:rgb(102,144,153);stroke-width:2.13px;"/>
        </g>
        <g transform="matrix(0.122926,0.212914,-0.212914,0.122926,83.2596,82.619)">
            <circle cx="24" cy="24" r="8" style="fill-opacity:0;stroke:rgb(102,144,153);stroke-width:2.13px;"/>
        </g>
        <g transform="matrix(0.122926,0.212914,-0.212914,0.122926,86.2098,87.7289)">
            <circle cx="24" cy="24" r="8" style="fill-opacity:0;stroke:rgb(102,144,153);stroke-width:2.13px;"/>
        </g>
        <g transform="matrix(0.122926,0.212914,-0.212914,0.122926,78.6061,78.4925)">
            <circle cx="64" cy="48" r="16" style="fill-opacity:0;stroke:rgb(102,144,153);stroke-width:2.13px;"/>
        </g>
    </g>
    <g transform="matrix(0.212914,0.122926,-0.122926,0.212914,31.6664,6.34089)">
        <circle cx="24" cy="24" r="8" style="fill-opacity:0;stroke:rgb(102,144,153);stroke-width:2.13px;"/>
    </g>
    <g transform="matrix(0.086273,0.321975,-0.321975,0.086273,65.8712,19.4174)">
        <circle cx="24" cy="24" r="8" style="fill-opacity:0;stroke:rgb(102,144,153);stroke-width:1.57px;"/>
    </g>
    <g transform="matrix(-0.166667,0.288675,-0.288675,-0.166667,58.2138,72.965)">
        <circle cx="24" cy="24" r="8" style="fill-opacity:0;stroke:rgb(102,144,153);stroke-width:1.57px;"/>
    </g>
    <g transform="matrix(0.237474,-0.0636311,0.0636311,0.237474,14.1028,52.1398)">
        <circle cx="24" cy="24" r="8" style="fill-opacity:0;stroke:rgb(102,144,153);stroke-width:2.13px;"/>
    </g>
    <g transform="matrix(0.212914,0.122926,-0.122926,0.212914,34.6166,1.23096)">
        <circle cx="24" cy="24" r="8" style="fill-opacity:0;stroke:rgb(102,144,153);stroke-width:2.13px;"/>
    </g>
    <g transform="matrix(0.086273,0.321975,-0.321975,0.086273,72.4032,23.1887)">
        <circle cx="24" cy="24" r="8" style="fill-opacity:0;stroke:rgb(102,144,153);stroke-width:1.57px;"/>
    </g>
    <g transform="matrix(-0.166667,0.288675,-0.288675,-0.166667,60.1659,80.2504)">
        <circle cx="24" cy="24" r="8" style="fill-opacity:0;stroke:rgb(102,144,153);stroke-width:1.57px;"/>
    </g>
    <g transform="matrix(0.237474,-0.0636311,0.0636311,0.237474,16.8843,47.3221)">
        <circle cx="24" cy="24" r="8" style="fill-opacity:0;stroke:rgb(102,144,153);stroke-width:2.13px;"/>
    </g>
    <g transform="matrix(0.212914,0.122926,-0.122926,0.212914,39.99,-0.208842)">
        <circle cx="24" cy="24" r="8" style="fill-opacity:0;stroke:rgb(102,144,153);stroke-width:2.13px;"/>
    </g>
    <g transform="matrix(0.086273,0.321975,-0.321975,0.086273,74.4738,30.9161)">
        <circle cx="24" cy="24" r="8" style="fill-opacity:0;stroke:rgb(102,144,153);stroke-width:1.57px;"/>
    </g>
    <g transform="matrix(-0.166667,0.288675,-0.288675,-0.166667,56.1659,87.1786)">
        <circle cx="24" cy="24" r="8" style="fill-opacity:0;stroke:rgb(102,144,153);stroke-width:1.57px;"/>
    </g>
    <g transform="matrix(0.237474,-0.0636311,0.0636311,0.237474,22.5837,45.795)">
        <circle cx="24" cy="24" r="8" style="fill-opacity:0;stroke:rgb(102,144,153);stroke-width:2.13px;"/>
    </g>
    <g transform="matrix(0.212914,0.122926,-0.122926,0.212914,45.0999,2.74138)">
        <circle cx="24" cy="24" r="8" style="fill-opacity:0;stroke:rgb(102,144,153);stroke-width:2.13px;"/>
    </g>
    <g transform="matrix(0.086273,0.321975,-0.321975,0.086273,67.7569,16.1515)">
        <circle cx="64" cy="48" r="16" style="fill-opacity:0;stroke:rgb(102,144,153);stroke-width:1.57px;"/>
    </g>
    <g transform="matrix(-0.166667,0.288675,-0.288675,-0.166667,61.8565,71.9889)">
        <circle cx="64" cy="48" r="16" style="fill-opacity:0;stroke:rgb(102,144,153);stroke-width:1.57px;"/>
    </g>
    <g transform="matrix(0.237474,-0.0636311,0.0636311,0.237474,11.6939,50.749)">
        <circle cx="64" cy="48" r="16" style="fill-opacity:0;stroke:rgb(102,144,153);stroke-width:2.13px;"/>
    </g>
    <g transform="matrix(0.212914,0.122926,-0.122926,0.212914,33.8967,-1.45575)">
        <circle cx="64" cy="48" r="16" style="fill-opacity:0;stroke:rgb(102,144,153);stroke-width:2.13px;"/>
    </g>
    <g transform="matrix(0.666667,0,0,0.666667,-4,-27)">
        <circle cx="24" cy="72" r="24" style="fill-opacity:0;stroke:rgb(102,144,153);stroke-width:0.78px;"/>
    </g>
    <g transform="matrix(0.666667,0,0,0.666667,92,-27)">
        <circle cx="24" cy="72" r="24" style="fill-opacity:0;stroke:rgb(102,144,153);stroke-width:0.78px;"/>
    </g>
    <g transform="matrix(1.91738e-17,0.5,-0.5,1.91738e-17,121,56)">
        <circle cx="24" cy="72" r="24" style="fill-opacity:0;stroke:rgb(102,144,153);stroke-width:1.05px;"/>
    </g>
    <g transform="matrix(1.91738e-17,0.5,-0.5,1.91738e-17,25,56)">
        <circle cx="24" cy="72" r="24" style="fill-opacity:0;stroke:rgb(102,144,153);stroke-width:1.05px;"/>
    </g>
    <g transform="matrix(-0.0833333,8.29833e-18,-8.29833e-18,-0.0833333,68,68)">
        <circle cx="24" cy="72" r="24" style="fill-opacity:0;stroke:rgb(102,144,153);stroke-width:6.27px;"/>
    </g>
    <g transform="matrix(-0.166667,1.65967e-17,-1.65967e-17,-0.166667,76,28)">
        <circle cx="24" cy="72" r="24" style="fill-opacity:0;stroke:rgb(102,144,153);stroke-width:3.14px;"/>
    </g>
    <g transform="matrix(-5.36041e-17,-0.333333,0.333333,-5.36041e-17,-8,91.2062)">
        <circle cx="24" cy="72" r="24" style="fill-opacity:0;stroke:rgb(102,144,153);stroke-width:1.57px;"/>
    </g>
</svg>
