<?xml version="1.0" encoding="UTF-8" standalone="no"?><!DOCTYPE svg PUBLIC "-//W3C//DTD SVG 1.1//EN" "http://www.w3.org/Graphics/SVG/1.1/DTD/svg11.dtd"><svg width="100%" height="100%" viewBox="0 0 2250 2250" version="1.1" xmlns="http://www.w3.org/2000/svg" xmlns:xlink="http://www.w3.org/1999/xlink" xml:space="preserve" xmlns:serif="http://www.serif.com/" style="fill-rule:evenodd;clip-rule:evenodd;stroke-linejoin:round;stroke-miterlimit:2;"><g id="背景板"></g><g style="filter:url(#_Effect1);"><g id="剪影"><path d="M1509.68,2049.97c159.172,-8.084 275.459,-12.92 285.725,-11.847c5.597,0.602 9.806,5.382 9.694,11.01c-0.112,5.628 -4.507,10.237 -10.124,10.616c-61.537,4.188 -128.457,9.066 -197.625,14.333c12.268,-0.464 20.123,-0.643 22.688,-0.501c5.606,0.308 10.017,4.904 10.095,10.519c0.078,5.614 -4.204,10.331 -9.8,10.794l-187.837,15.316c46.898,-1.83 79.823,-2.547 87.714,-1.507c4.571,0.594 7.975,4.515 7.92,9.124c-0.055,4.609 -3.55,8.448 -8.134,8.934c-72.087,7.156 -150.873,16.083 -219.051,24.247c23.59,-0.691 41.754,-0.716 49.273,0.158c1.847,0.194 3.277,1.708 3.365,3.564c0.089,1.856 -1.19,3.498 -3.011,3.868c-14.621,2.8 -28.944,6.858 -41.367,11.048c-23.212,7.828 -39.842,15.936 -39.842,15.936c-1.534,0.749 -3.388,0.111 -4.137,-1.423c-0.75,-1.534 -0.112,-3.388 1.422,-4.137c0,-0 16.902,-8.263 40.405,-16.597c4.479,-1.588 9.196,-3.184 14.084,-4.725c-16.249,0.574 -37.405,1.766 -60.426,3.335c-44.855,3.059 -96.738,7.591 -133.355,12.006c-3.251,0.358 -6.213,-1.891 -6.744,-5.118c-0.53,-3.227 1.557,-6.305 4.751,-7.007c16.301,-3.731 89.813,-14.898 180.831,-27.1c-134.757,6.98 -295.597,16.19 -365.079,18.952c-4.984,0.19 -9.35,-3.314 -10.243,-8.222c-0.893,-4.908 1.959,-9.725 6.692,-11.303c0.941,-0.315 3.191,-0.73 6.64,-1.227c-75.286,4.977 -137.21,9.428 -171.675,12.573c-5.914,0.537 -11.216,-3.644 -12.074,-9.519c-0.857,-5.876 3.028,-11.398 8.848,-12.574c10.563,-2.136 96.566,-10.567 220.52,-21.656c-7.153,-1.315 -14.301,-2.706 -21.451,-4.172c-147.923,8.451 -282.4,17.123 -369.167,24.852c-3.676,0.342 -6.938,-2.364 -7.28,-6.04c-0.343,-3.676 2.363,-6.938 6.039,-7.281c76.061,-7.397 188.793,-15.908 315.119,-24.385c-131.184,-34.12 -258.506,-93.145 -370.261,-173.836c-171.96,-124.162 -308.058,-300.068 -364.096,-516.837c-47.349,-183.157 -36.978,-395.383 54.682,-629.16c1.969,-5.175 7.769,-7.779 12.945,-5.81c0.518,0.197 1.011,0.433 1.477,0.703c-2.837,-8.647 -7.172,-23.472 -11.012,-43.279c-2.037,-10.506 -3.411,-22.403 -4.593,-35.376c-5.191,-56.939 -5.085,-134.186 10.793,-208.379c5.674,-26.513 13.25,-52.785 24.19,-77.229c16.982,-37.943 41.125,-71.522 72.153,-98.12c0.402,-0.386 0.839,-0.741 1.31,-1.061c0.821,-0.56 1.706,-0.984 2.623,-1.272c1.622,-0.514 3.301,-0.592 4.896,-0.287c1.595,0.301 3.128,0.99 4.448,2.064c0.748,0.605 1.416,1.324 1.974,2.146c0.317,0.466 0.591,0.951 0.82,1.451c8.336,13.715 17.149,26.656 25.154,40.066c5.454,9.137 10.558,18.269 15.354,27.336c16.583,31.35 31.658,60.391 43.961,84.309c-0.001,-0.026 -0.002,-0.053 -0.003,-0.079c-2.314,-11.086 0.063,-25.001 7.105,-41.321c3.263,-7.561 7.824,-15.283 13.345,-23.251c15.889,-22.93 39.823,-47.169 66.268,-71.009c36.133,-32.573 77.474,-64.651 115.052,-86.829c40.551,-23.934 76.532,-36.48 93.612,-35.708c1.732,-0.036 3.371,0.369 4.81,1.112c19.886,-8.854 41.916,-15.223 62.763,-17.344c13.358,-1.108 27.055,-2.485 40.181,-2.601c9.645,-0.086 18.961,0.426 27.594,1.634c19.385,2.711 35.34,8.666 44.697,19.497c1.638,1.638 2.249,3.917 1.831,6.033c8.56,18.735 5.885,35.666 -3.324,50.736c-3.66,5.989 -8.647,11.527 -14.471,16.678c-14.397,12.734 -34.464,23.03 -55.103,31.474c-20.146,8.243 -40.557,15.874 -57.431,20.107c-3.784,0.949 -7.34,1.667 -10.626,2.277c-1.872,8.563 -10.299,20.15 -23.471,33.131c-9,8.869 -20.2,18.611 -32.682,28.328c-5.52,4.298 -11.271,8.606 -17.079,12.934c102.318,-59.334 217.114,-96.445 342.824,-114.958c7.284,-1.209 14.179,3.724 15.388,11.008c0.02,0.124 0.039,0.249 0.056,0.372c1.463,-5.034 5.832,-8.951 11.364,-9.57c101.943,-13.364 237.309,5.066 365.616,49.764c124.212,43.271 241.236,111.388 316.833,194.345c16.125,18.045 32.368,37.038 48.437,56.974c4.846,-5.493 10.006,-10.772 15.482,-15.82c51.883,-47.83 132.561,-74.998 242.357,-65.472c12.877,1.162 27.268,3.748 41.066,6.858c30.112,6.788 57.341,15.851 58.947,16.389c0.38,0.116 0.756,0.256 1.126,0.421c0.374,0.165 0.733,0.351 1.078,0.557c36.465,20.567 53.25,73.788 26.169,112.975c-16.755,24.244 -51.082,43.832 -110.479,44.815c-64.218,0.832 -108.578,7.959 -137.521,20.749c-17.764,7.849 -28.594,18.083 -33.868,30.481c25.506,44.86 48.263,93.019 66.507,144.521c6.605,18.643 12.619,37.722 17.959,57.226c14.498,22.105 29.572,44.983 44.22,68.402c54.666,87.399 103.574,181.763 103.399,270.26c-0.373,100.957 -11.631,207.99 -38.125,298.82c-21.661,74.262 -53.596,137.743 -97.083,179.236c-28.299,26.153 -61.018,50.99 -96.52,71.721c14.17,-0.938 28.258,-1.662 42.161,-2.119c36.114,-1.188 70.981,-0.501 102.809,2.603c63.324,6.176 114.811,22.754 142.938,51.916c5.414,5.617 5.612,14.449 0.454,20.302c-9.977,11.263 -37.313,22.017 -73.911,30.303c-64.285,14.555 -158.811,25.533 -219.761,39.678c11.612,0.137 23.641,0.047 35.917,-0.191c29.392,-0.57 60.144,-2.453 90.031,-3.904c52.173,-2.532 101.463,-4.771 135.805,-6.977c2.261,-0.264 4.311,1.358 4.575,3.619c0.263,2.262 -1.358,4.312 -3.62,4.575c-39.695,6.618 -99.38,17.804 -160.812,24.004c-59.161,5.971 -119.613,7.066 -164.175,2.484c-4.807,-0.537 -8.961,-3.599 -10.899,-8.031c-1.937,-4.432 -1.362,-9.561 1.508,-13.454c5.484,-7.524 18.665,-15.272 37.979,-21.554c50.769,-16.515 148.969,-28.92 222.749,-43.871c28.516,-5.779 53.255,-11.108 68.619,-17.786c-25.847,-17.399 -64.9,-26.294 -110.449,-31.389c-59.36,-6.641 -129.624,-5.781 -198.796,-1.769c-39.339,16.485 -80.402,27.309 -120.695,30.635c-2.25,0.275 -4.323,-1.112 -4.983,-3.198c-1.1,1.231 -2.155,2.421 -3.162,3.567c0.167,0.121 0.326,0.256 0.478,0.403c1.841,1.781 1.89,4.721 0.11,6.562c-51.704,56.523 -111.404,102.372 -177.049,137.434c21.173,-1.176 43.816,-2.246 63.919,-2.806c34.054,-0.949 60.694,-0.043 60.694,-0.043c1.136,-0.073 2.118,0.79 2.191,1.926c0.073,1.135 -0.79,2.117 -1.925,2.19c-0,0 -26.303,4.323 -60.196,7.757c-31.7,3.213 -69.886,5.975 -98.506,7.847c-0.82,0.381 -1.641,0.761 -2.462,1.138l-0.057,0.003c-94.06,4.777 -203.113,10.69 -314.103,17.187l314.103,-17.187Zm452.324,-41.61c-0,-0 62.507,-0.015 125.019,-1.6c22.783,-0.578 45.559,-1.365 65.304,-2.132c0.007,0 -41.969,12.333 -41.969,12.333c-3.05,0.872 -5.022,3.82 -4.663,6.972c0.359,3.151 2.944,5.581 6.111,5.744c0,-0 24.638,1.33 49.307,1.495c24.775,0.166 49.428,-0.836 49.428,-0.836c1.137,0.059 2.107,-0.817 2.166,-1.954c0.058,-1.136 -0.817,-2.107 -1.954,-2.165c0,-0 -24.419,-3.532 -49.079,-5.914c-3.766,-0.364 -7.535,-0.701 -11.216,-1.01c-0.004,0 63.199,-17.548 63.199,-17.548c3.531,-1.008 5.752,-4.494 5.177,-8.12c-0.576,-3.626 -3.768,-6.252 -7.437,-6.117c0,-0 -62.491,1.415 -124.917,4.4c-62.461,2.986 -124.802,7.539 -124.802,7.539c-2.46,0.09 -4.383,2.16 -4.293,4.62c0.09,2.459 2.159,4.383 4.619,4.293Zm-20.172,-520.946c-22.977,45.594 -51.452,91.019 -85.677,135.262c4.867,-1.43 9.723,-3.184 14.594,-5.522c11.948,-5.734 23.733,-15.314 36.271,-32.528c6.73,-8.988 19.695,-41.847 32.019,-86.819c0.931,-3.4 1.865,-6.866 2.793,-10.393Zm-1513.79,-996.036c0.507,1.215 1.019,2.433 1.533,3.651l0.289,-1.006c-0.603,-0.865 -1.21,-1.747 -1.822,-2.645Zm14.03,-34.914l0.158,-0.399c-0.194,-0.11 -0.379,-0.235 -0.554,-0.373l0.396,0.772Zm-100.047,-131.488c0.188,-0.017 0.376,-0.033 0.565,-0.048l-0.157,-0.467l-0.408,0.515Zm719.168,-23.23c-0.156,-0.564 -0.276,-1.146 -0.357,-1.741c-0.184,0.632 -0.414,1.248 -0.687,1.841l0.689,-0.067l0.355,-0.033Zm-200.577,-32.877c-0.738,0.192 -3.144,0.826 -6.046,1.641c-1.507,1.369 -3.034,2.72 -4.586,4.049c3.623,-1.84 7.177,-3.738 10.632,-5.69Zm40.895,-66.068c1.908,5.352 3.559,11.096 4.483,14.991c0.031,-3.58 -0.497,-7.369 -1.672,-11.398c-0.255,-0.694 -0.389,-1.402 -0.411,-2.103c-0.768,-0.535 -1.568,-1.031 -2.4,-1.49Z" style="fill:#1a1a1a;"/></g></g><circle id="球" cx="1125" cy="1125" r="843.75" style="fill:#d0c3d7;"/><clipPath id="_clip2"><circle id="球1" serif:id="球" cx="1125" cy="1125" r="843.75"/></clipPath><g clip-path="url(#_clip2)"><path id="球2" serif:id="球" d="M528.379,1721.62c329.505,329.505 863.737,329.505 1193.24,0c329.505,-329.505 329.505,-863.737 0,-1193.24c0,-0 -116.497,678.997 -315.371,877.871c-198.874,198.874 -877.871,315.371 -877.871,315.371Z" style="fill:#856c93;"/></g><g id="线"><path d="M765.203,385.087c44.92,41.031 89.222,103.972 132.715,174.798c57.396,93.467 112.803,200.88 159.906,294.196c51.136,98.178 100.381,199.605 141.255,303.962c27.091,69.168 50.588,139.601 68.099,211.399c17.304,70.158 30.242,147.993 40.233,226.102c7.441,58.165 12.453,116.515 16.909,172.075c5.023,62.644 9.45,121.465 9.595,173.094c-0.18,3.41 2.442,6.325 5.852,6.505c3.41,0.18 6.325,-2.442 6.505,-5.853c5.643,-51.921 9.924,-111.524 9.757,-175.097c-0.1,-37.981 -2.019,-77.227 -4.967,-116.848c-7.376,-99.107 -22.587,-200.333 -43.24,-289.696c-17.299,-73.83 -40.517,-146.403 -67.884,-217.542c-40.816,-106.098 -90.732,-209.023 -142.296,-308.763c-49.707,-93.218 -107.028,-201.212 -168.278,-293.604c-47.752,-72.031 -97.926,-134.479 -146.585,-174.902c-5.567,-4.85 -14.025,-4.268 -18.875,1.299c-4.85,5.567 -4.268,14.025 1.299,18.875Z" style="fill:#1a1a1a;"/><path d="M878.887,351.209c46.647,58.594 96.388,129.27 144.836,203.851c45.459,69.979 89.779,143.353 126.915,214.817c52.89,98.457 116.133,222.385 169.071,344.066c36.262,83.352 67.803,165.592 87.078,238.032c21.357,79.142 33.962,158.865 39.695,240.282c1.708,24.249 2.887,48.607 3.652,73.213c1.745,56.152 1.084,113.154 -4.596,172.049c-0.521,3.375 1.795,6.538 5.17,7.06c3.375,0.521 6.538,-1.795 7.06,-5.17c12.591,-58.922 21.376,-116.41 24.612,-173.527c1.434,-25.314 1.618,-50.467 0.836,-75.491c-2.63,-84.234 -16.059,-166.686 -36.697,-248.771c-19.002,-74.467 -50.082,-159.271 -86.695,-244.972c-52.641,-123.215 -116.549,-248.357 -169.656,-347.93c-39.542,-71.751 -85.625,-145.827 -134.394,-215.307c-51.767,-73.752 -106.337,-142.295 -156.355,-199.358c-4.734,-5.666 -13.178,-6.422 -18.844,-1.688c-5.666,4.734 -6.422,13.178 -1.688,18.844Z" style="fill:#1a1a1a;"/><path d="M1114.92,290.051c64.139,77.106 122.327,155.845 176.515,236.342c54.82,81.434 105.454,164.727 149.43,252.871c42.432,83.149 81.809,180.975 115.597,276.847c37.202,105.56 67.592,208.797 86.169,288.195c13.61,55.53 18.521,111.933 20.963,169.067c2.44,57.074 2.622,114.679 -0.581,173.425c-0.388,3.393 2.052,6.462 5.445,6.849c3.393,0.388 6.462,-2.052 6.849,-5.445c12.151,-70.992 22.388,-140.894 21.942,-210.543c-0.306,-47.791 -6.389,-95.099 -16.436,-142.012c-17.754,-80.85 -46.703,-186.22 -83.449,-293.732c-33.529,-98.104 -73.615,-197.927 -116.438,-282.96c-46.019,-89.35 -97.304,-174.694 -155.75,-256.033c-57.349,-79.812 -121.45,-155.608 -190.106,-230.473c-4.857,-5.561 -13.316,-6.132 -18.876,-1.274c-5.561,4.857 -6.132,13.316 -1.274,18.876Z" style="fill:#1a1a1a;"/><path d="M989.346,329.558c62.654,75.286 117.859,144.985 168.677,214.196c53.897,73.404 102.66,146.332 146.505,227.373c42.778,77.056 82.196,160.172 115.954,244.36c34.561,86.191 63.206,173.516 82.531,256.981c14.02,59.629 23.301,126.85 29.681,193.665c3.821,40.017 6.11,79.892 8.34,117.962c3.992,68.176 6.501,130.334 3.843,177.745c-0.388,3.392 2.052,6.462 5.445,6.849c3.393,0.387 6.462,-2.052 6.849,-5.445c7.107,-40.537 13.375,-92.217 15.859,-149.692c1.388,-32.118 1.547,-65.909 0.384,-100.355c-2.865,-84.828 -13.528,-173.262 -30.164,-249.837c-18.954,-85.696 -47.101,-175.563 -81.922,-264.095c-33.891,-86.169 -74.125,-171.043 -117.528,-249.853c-36.957,-65.823 -76.197,-126.922 -120.262,-186.039c-62.1,-83.312 -133.059,-162.945 -214.042,-251.417c-4.857,-5.56 -13.316,-6.131 -18.876,-1.274c-5.561,4.858 -6.132,13.316 -1.274,18.876Z" style="fill:#1a1a1a;"/><path d="M1264.34,338.165c53.665,58.64 100.529,116.565 143.174,175.712c44.076,61.132 83.475,123.642 118.057,191.71c37.493,71.329 74.063,159.31 106.405,247.813c33.303,91.134 62.12,182.844 81.566,258.119c11.579,43.968 20.782,97.948 28.715,151.61c4.671,31.597 8.64,63.072 12.405,92.437c7.944,61.95 13.757,114.152 11.532,138.644c-0.539,3.372 1.761,6.547 5.133,7.086c3.373,0.539 6.548,-1.761 7.086,-5.133c7.045,-31.546 11.144,-111.35 5.011,-198.391c-4.79,-67.982 -16.897,-139.823 -30.458,-196.19c-18.847,-76.67 -46.622,-170.277 -79.728,-263.08c-32.366,-90.732 -69.856,-180.654 -107.921,-253.715c-37.31,-69.254 -78.477,-133.408 -126.346,-194.551c-45.775,-58.468 -97.546,-114.05 -155.397,-170.671c-5.133,-5.308 -13.609,-5.45 -18.917,-0.317c-5.308,5.133 -5.45,13.609 -0.317,18.917Z" style="fill:#1a1a1a;"/><path d="M439.776,938.806c51.277,14.677 104.133,27.624 157.327,35.501c54.566,8.079 109.027,11.181 160.347,13.141c87.918,3.359 167.12,2.162 224.629,-2.666c10.36,-0.87 19.915,-2.05 28.744,-3.473c42.599,-6.865 66.573,-14.05 66.573,-14.05c3.402,-0.301 5.919,-3.307 5.618,-6.709c-0.301,-3.401 -3.307,-5.918 -6.709,-5.617c0,-0 -25.164,-3.43 -68.881,-5.844c-13.569,-0.749 -28.835,-0.794 -45.644,-0.9c-69.211,-0.437 -163.565,-1.175 -265.278,-8.962c-32.888,-2.518 -66.505,-5.956 -100.424,-9.099c-50.294,-4.661 -101.011,-8.93 -150.334,-17.404c-7.198,-1.646 -14.378,2.86 -16.025,10.058c-1.647,7.197 2.86,14.378 10.057,16.024Z" style="fill:#1a1a1a;"/><path d="M1695.91,851.263c0,0 14.963,2.035 36.151,-1.287c15.623,-2.449 33.79,-8.831 50.795,-14.353c12.383,-4.021 24.221,-7.598 33.138,-12.192c3.402,-1.753 5.84,-3.518 8.191,-5.589c9.277,-8.173 11.132,-12.559 11.132,-12.559c3.292,-0.91 5.226,-4.32 4.316,-7.612c-0.909,-3.291 -4.32,-5.225 -7.612,-4.316c0,0 -3.843,-2.811 -16.001,-5.061c-3.081,-0.57 -6.079,-0.834 -9.898,-0.591c-10.011,0.636 -22.006,3.644 -34.697,6.552c-17.427,3.992 -36.294,7.843 -50.957,13.762c-19.888,8.029 -31.684,17.457 -31.684,17.457c-7.117,1.966 -11.298,9.341 -9.332,16.458c1.967,7.116 9.341,11.298 16.458,9.331Z" style="fill:#1a1a1a;"/><path d="M354.104,1059.64c59.999,17.267 124.362,30.773 190.052,37.745c64.798,6.878 130.509,7.605 192.993,6.577c103.923,-1.709 199.399,-9.292 268.71,-19.265c12.296,-1.769 23.67,-3.804 34.153,-6.028c49.994,-10.607 78.723,-20.35 78.723,-20.35c3.372,-0.538 5.673,-3.713 5.134,-7.085c-0.538,-3.372 -3.713,-5.673 -7.085,-5.134c0,-0 -30.821,-0.831 -82.731,0.697c-16.33,0.481 -34.626,1.795 -54.693,3.122c-84.124,5.565 -198.416,12.146 -318.356,9.05c-39.921,-1.03 -80.423,-3.304 -120.738,-5.805c-61.604,-3.821 -122.607,-8.54 -179.924,-19.542c-7.18,-1.722 -14.407,2.71 -16.128,9.89c-1.722,7.18 2.71,14.407 9.89,16.128Z" style="fill:#1a1a1a;"/><path d="M356.827,1211.48c56.585,12.269 122.111,20.882 191.234,23.536c41.863,1.607 84.949,0.639 127.844,-1.15c122.465,-5.11 243.737,-18.249 332.736,-31.735c20.738,-3.143 39.699,-6.224 56.424,-9.886c52.671,-11.532 83.447,-22.359 83.447,-22.359c3.37,-0.552 5.658,-3.737 5.106,-7.107c-0.553,-3.37 -3.737,-5.657 -7.107,-5.105c0,-0 -32.304,-0.49 -85.799,2.342c-16.972,0.898 -35.941,2.735 -56.67,4.691c-88.688,8.372 -208.669,19.85 -329.89,24.26c-42.124,1.533 -84.371,2.059 -125.5,2.522c-67.283,0.758 -131.435,0.657 -187.314,-6.382c-7.278,-1.245 -14.197,3.653 -15.442,10.931c-1.245,7.278 3.653,14.197 10.931,15.442Z" style="fill:#1a1a1a;"/><path d="M395.65,1334.99c59.484,13.972 124.519,22.969 191.368,25.221c42.527,1.432 85.669,-0.212 128.22,-2.995c124.458,-8.142 244.335,-27.59 331.709,-46.569c20.563,-4.466 39.309,-8.819 55.752,-13.646c51.951,-15.252 81.663,-28.663 81.663,-28.663c3.311,-0.839 5.317,-4.208 4.478,-7.518c-0.839,-3.31 -4.208,-5.316 -7.518,-4.477c-0,-0 -32.026,2.242 -85.218,8.811c-16.815,2.077 -35.572,5.172 -56.119,8.437c-86.955,13.819 -204.961,31.416 -327.561,38.78c-41.516,2.494 -83.523,3.648 -125.022,4.31c-64.777,1.034 -128.205,0.422 -186.788,-7.982c-7.256,-1.37 -14.258,3.408 -15.628,10.664c-1.37,7.255 3.409,14.257 10.664,15.627Z" style="fill:#1a1a1a;"/><path d="M1722.38,950.808c-0,0 16.516,-1.416 38.483,-9.418c16.35,-5.955 34.756,-16.39 52.081,-25.713c12.601,-6.781 24.696,-12.991 33.528,-19.589c3.313,-2.475 5.697,-4.817 7.879,-7.405c8.315,-9.865 9.921,-15 9.921,-15c3.07,-1.496 4.348,-5.202 2.852,-8.272c-1.495,-3.07 -5.202,-4.348 -8.272,-2.853c-0,0 -5.033,-1.9 -17.927,-1.433c-3.383,0.123 -6.697,0.557 -10.687,1.64c-10.64,2.889 -22.985,8.585 -36.091,14.329c-18.02,7.896 -37.582,15.958 -52.349,25.162c-19.841,12.367 -31.137,24.499 -31.137,24.499c-6.637,3.234 -9.401,11.248 -6.167,17.886c3.234,6.638 11.248,9.401 17.886,6.167Z" style="fill:#1a1a1a;"/><path d="M1782.04,1053.72c-0,0 13.754,-2.684 31.27,-12.411c12.801,-7.109 26.42,-18.653 39.316,-29.033c9.402,-7.567 18.48,-14.56 24.607,-21.555c2.376,-2.711 3.827,-5.061 5.133,-7.708c5.317,-10.773 5.149,-15.062 5.149,-15.062c2.76,-2.012 3.367,-5.885 1.356,-8.645c-2.011,-2.76 -5.885,-3.367 -8.644,-1.356c-0,0 -4.033,-1.473 -15.916,0.29c-2.92,0.433 -5.601,1.095 -8.91,2.526c-8.534,3.692 -17.971,10.193 -28.054,16.826c-13.83,9.098 -28.989,18.528 -39.676,28.537c-14.624,13.696 -21.39,25.969 -21.39,25.969c-5.967,4.348 -7.281,12.723 -2.932,18.69c4.349,5.967 12.724,7.281 18.691,2.932Z" style="fill:#1a1a1a;"/><path d="M1824.06,1067.81c-3.56,13.303 -8.143,25.468 -11.605,38.273c-2.33,8.622 -4.311,17.119 -5.954,25.531c-7.438,38.094 -14.22,71.949 -19.293,96.545c-1.245,6.039 -2.485,11.414 -2.666,16.367c-0.677,18.483 2.417,26.818 2.417,26.818c-1.186,3.202 0.452,6.765 3.655,7.95c3.202,1.185 6.764,-0.452 7.95,-3.655c-0,0 6.388,-4.439 16.557,-18.157c1.866,-2.516 3.497,-5.213 5.058,-8.524c8.075,-17.133 15.371,-42.33 22.587,-71.651c4.021,-16.339 8.53,-34.043 9.936,-52.868c1.328,-17.77 -0.533,-35.601 -1.983,-54.357c0.627,-7.357 -4.837,-13.839 -12.194,-14.466c-7.356,-0.627 -13.838,4.837 -14.465,12.194Z" style="fill:#1a1a1a;"/><path d="M1892.83,1033.01c-4.6,37.14 -12.236,72.63 -18.152,107.285c-6.417,37.588 -11.671,73.629 -18.102,106.83c-11.633,60.066 -25.425,110.893 -34.154,148.118c-1.624,6.926 -2.806,13.316 -3.722,19.331c-4.555,29.934 -5.667,46.339 -5.667,46.339c-1.241,3.181 0.335,6.772 3.516,8.012c3.182,1.241 6.772,-0.335 8.013,-3.516c-0,-0 10.487,-13.365 24.727,-40.896c2.864,-5.538 5.608,-11.615 8.241,-18.413c14.166,-36.572 28.904,-88.765 42.255,-150.088c7.408,-34.026 14.909,-70.931 18.45,-110.035c3.258,-35.963 2.576,-73.336 1.323,-111.756c0.334,-7.376 -5.382,-13.635 -12.758,-13.97c-7.376,-0.334 -13.636,5.383 -13.97,12.759Z" style="fill:#1a1a1a;"/><path d="M836.568,539.078c-26.026,23.147 -51.499,46.457 -73.656,72.009c-23.364,26.944 -43.019,55.602 -61.053,82.511c-31.672,47.259 -57.469,90.338 -73.125,123.241c-2.879,6.052 -5.185,11.72 -7.053,17.156c-9.273,26.98 -11.525,42.523 -11.525,42.523c-1.523,3.056 -0.278,6.774 2.778,8.297c3.056,1.524 6.774,0.279 8.298,-2.778c-0,0 10.244,-10.247 27.224,-30.841c3.838,-4.654 7.797,-9.75 11.877,-15.631c7.619,-10.982 15.483,-24.041 24.599,-38.155c23.008,-35.62 52.534,-78.632 86.06,-123.973c11.128,-15.049 22.791,-30.264 34.207,-46.026c16.728,-23.095 32.679,-47.055 50.777,-69.916c5.083,-5.356 4.861,-13.831 -0.495,-18.913c-5.356,-5.082 -13.831,-4.86 -18.913,0.496Z" style="fill:#1a1a1a;"/><path d="M892.629,650.365c-18.022,13.702 -35.821,26.768 -51.291,42.21c-16.244,16.215 -29.603,34.131 -42.064,50.705c-22.038,29.313 -40.444,55.734 -51.171,76.441c-2.022,3.905 -3.509,7.502 -4.672,11.085c-6.078,18.723 -6.576,28.518 -6.576,28.518c-1.776,2.917 -0.85,6.727 2.067,8.503c2.917,1.776 6.726,0.85 8.503,-2.067c-0,0 10.028,-4.937 25.675,-19.858c4.43,-4.224 8.56,-9.684 13.286,-15.63c19.552,-24.605 46.558,-58.266 76.758,-95.005c6.768,-8.233 13.421,-16.78 19.949,-25.655c9.701,-13.189 18.326,-26.888 28.392,-40.264c5.238,-5.204 5.267,-13.681 0.064,-18.919c-5.204,-5.239 -13.681,-5.267 -18.92,-0.064Z" style="fill:#1a1a1a;"/><path d="M943.216,743.226c-0,0 -13.566,8.815 -28.706,25.937c-11.244,12.715 -22.098,30.276 -32.552,46.368c-7.607,11.707 -15.05,22.686 -19.483,32.487c-1.669,3.691 -2.586,6.812 -3.217,10.068c-2.425,12.518 -1.295,17.609 -1.295,17.609c-1.977,2.784 -1.322,6.65 1.462,8.627c2.784,1.978 6.65,1.322 8.627,-1.462c0,0 5.179,-0.61 16.2,-7.025c2.866,-1.668 5.51,-3.563 8.445,-6.355c7.793,-7.415 15.706,-18.06 24.253,-29.1c11.748,-15.173 24.752,-31.207 33.051,-46.012c11.177,-19.938 15.03,-35.65 15.03,-35.65c4.275,-6.02 2.858,-14.378 -3.162,-18.653c-6.02,-4.275 -14.378,-2.859 -18.653,3.161Z" style="fill:#1a1a1a;"/><path d="M994.459,830.077c0,-0 -7.076,1.178 -14.941,9.801c-4.778,5.24 -7.963,13.525 -11.111,20.9c-2.355,5.515 -5.126,10.622 -5.022,15.241c0.339,14.976 5.768,15.16 5.768,15.16c-1.642,2.994 -0.544,6.758 2.45,8.4c2.994,1.642 6.758,0.544 8.4,-2.45c-0,-0 3.073,4.478 15.883,-3.287c3.952,-2.395 6.767,-7.477 10.152,-12.428c4.526,-6.618 9.8,-13.758 11.649,-20.605c3.043,-11.267 0.232,-17.867 0.232,-17.867c3.551,-6.474 1.177,-14.613 -5.297,-18.163c-6.474,-3.55 -14.612,-1.176 -18.163,5.298Z" style="fill:#1a1a1a;"/><path d="M1449.25,406.109c0,-0 -2.212,10.766 1.078,26.614c2.31,11.124 8.408,23.655 13.675,35.371c3.86,8.586 7.329,16.804 11.663,22.62c1.804,2.421 3.369,3.738 5.38,5.175c9.236,6.601 12.122,6.235 12.122,6.235c1.206,3.194 4.778,4.81 7.973,3.604c3.195,-1.206 4.81,-4.778 3.605,-7.973c-0,-0 2.408,-1.631 4.981,-12.689c0.56,-2.407 0.864,-4.43 0.619,-7.439c-0.588,-7.229 -3.413,-15.69 -6.188,-24.686c-3.786,-12.275 -7.487,-25.71 -13.102,-35.587c-7.999,-14.07 -16.773,-20.692 -16.773,-20.692c-2.607,-6.908 -10.332,-10.4 -17.24,-7.793c-6.908,2.607 -10.4,10.332 -7.793,17.24Z" style="fill:#1a1a1a;"/><path d="M1546.99,457.937c0,0 -6.711,9.742 -10.591,26.538c-2.763,11.96 -2.699,26.985 -3.042,40.86c-0.25,10.149 -0.707,19.765 0.685,27.462c0.565,3.125 1.414,5.208 2.6,7.521c5.237,10.211 8.217,11.636 8.217,11.636c-0.279,3.404 2.258,6.393 5.661,6.672c3.404,0.279 6.393,-2.257 6.672,-5.661c0,0 3.173,-0.921 10.003,-10.142c1.547,-2.09 2.724,-4.007 3.79,-6.998c2.627,-7.368 3.742,-16.93 5.147,-26.984c1.921,-13.745 4.431,-28.559 3.653,-40.81c-1.093,-17.204 -6.128,-27.908 -6.128,-27.908c0.603,-7.359 -4.882,-13.823 -12.241,-14.426c-7.359,-0.603 -13.823,4.881 -14.426,12.24Z" style="fill:#1a1a1a;"/><path d="M1623.55,511.687c-0,-0 -9.145,12.575 -16.634,33.295c-5.54,15.325 -8.889,34.873 -12.422,52.956c-2.571,13.162 -5.266,25.614 -5.634,35.94c-0.14,3.917 0.202,7.01 0.856,10.151c2.551,12.258 5.495,16.24 5.495,16.24c-0.799,3.32 1.248,6.664 4.569,7.463c3.32,0.798 6.664,-1.249 7.462,-4.569c0,-0 4.432,-2.208 12.279,-11.965c2.01,-2.501 3.721,-5.1 5.378,-8.652c4.367,-9.365 7.629,-21.68 11.324,-34.572c5.075,-17.712 10.982,-36.645 13.017,-52.813c2.75,-21.86 0.324,-37.218 0.324,-37.218c1.727,-7.178 -2.7,-14.408 -9.879,-16.135c-7.179,-1.726 -14.409,2.7 -16.135,9.879Z" style="fill:#1a1a1a;"/><path d="M1681,579.597c0,-0 -9.192,19.103 -16.31,47.736c-5.394,21.694 -8.452,48.628 -11.748,73.686c-2.391,18.186 -4.944,35.433 -5.145,49.563c-0.074,5.128 0.304,9.473 1.022,13.609c2.543,14.669 5.806,21.112 5.806,21.112c-0.551,3.37 1.737,6.554 5.107,7.106c3.37,0.551 6.554,-1.737 7.106,-5.107c-0,-0 5.146,-5.067 12.233,-18.161c1.998,-3.691 3.741,-7.69 5.306,-12.573c4.313,-13.457 7.391,-30.619 10.92,-48.618c4.864,-24.802 10.55,-51.306 12.352,-73.587c2.38,-29.408 -0.244,-50.445 -0.244,-50.445c1.192,-7.287 -3.755,-14.171 -11.042,-15.363c-7.287,-1.192 -14.17,3.755 -15.363,11.042Z" style="fill:#1a1a1a;"/><path d="M1734.83,665.856c-0,0 -6.168,4.26 -10.124,15.611c-2.457,7.049 -2.252,16.363 -2.374,24.802c-0.09,6.292 -0.761,12.36 1.124,16.827c5.785,13.706 11.085,12.335 11.085,12.335c-0.367,3.395 2.091,6.449 5.486,6.816c3.395,0.367 6.45,-2.091 6.817,-5.486c-0,-0 4.884,2.472 13.464,-9.681c2.797,-3.961 3.438,-10.033 4.694,-16.198c1.685,-8.27 3.876,-17.325 2.982,-24.736c-1.439,-11.935 -6.553,-17.414 -6.553,-17.414c0.793,-7.34 -4.522,-13.944 -11.863,-14.738c-7.341,-0.794 -13.945,4.522 -14.738,11.862Z" style="fill:#1a1a1a;"/><path d="M839.425,1406.38c29.116,28.513 63.172,57.985 101.537,84.151c35.865,24.462 75.156,45.82 113.164,65.684c61.638,32.213 120.661,59.943 165.29,76.969c7.884,3.008 15.294,5.454 22.31,7.443c33.74,9.566 54.081,12.363 54.081,12.363c3.164,1.282 6.775,-0.245 8.058,-3.41c1.283,-3.165 -0.244,-6.776 -3.409,-8.059c-0,0 -16.536,-12.792 -47.085,-31.107c-9.512,-5.703 -20.556,-11.347 -32.679,-17.538c-51.294,-26.195 -121.151,-60.914 -190.343,-100.594c-23.611,-13.54 -47.043,-27.78 -70.263,-41.414c-37.011,-21.732 -72.996,-42.225 -103.248,-64.803c-5.606,-4.805 -14.059,-4.155 -18.864,1.451c-4.805,5.606 -4.155,14.059 1.451,18.864Z" style="fill:#1a1a1a;"/><path d="M662.166,1435.58c34.736,37.362 77.619,74.035 126.212,106.449c29.951,19.977 62.177,37.922 94.681,54.82c93.108,48.405 189.669,87.26 262.391,111.848c16.956,5.733 32.549,10.757 46.721,14.312c44.801,11.24 72.524,13.837 72.524,13.837c3.262,1.007 6.729,-0.824 7.737,-4.087c1.007,-3.263 -0.824,-6.729 -4.087,-7.737c0,0 -23.907,-13.337 -65.287,-32.659c-13.07,-6.102 -28.027,-12.21 -44.356,-18.965c-69.659,-28.815 -163.66,-68.244 -254.792,-116.35c-31.397,-16.574 -62.339,-34.289 -92.443,-51.923c-48.222,-28.247 -93.921,-56.64 -130.676,-88.754c-5.301,-5.14 -13.777,-5.009 -18.917,0.292c-5.139,5.301 -5.009,13.777 0.292,18.917Z" style="fill:#1a1a1a;"/><path d="M483.722,1478.41c45.01,46.75 99.956,90.595 161.278,128.407c38.492,23.735 79.58,44.704 121.005,64.054c119.417,55.781 242.857,97.083 335.488,122.272c21.611,5.877 41.493,10.95 59.429,14.476c56.374,11.084 91.23,13.027 91.23,13.027c3.332,0.746 6.643,-1.354 7.389,-4.687c0.746,-3.332 -1.354,-6.643 -4.686,-7.389c-0,-0 -31.799,-12.97 -85.243,-32.291c-16.979,-6.138 -36.259,-12.322 -57.269,-19.246c-89.605,-29.529 -210.132,-71.415 -327.22,-126.824c-40.131,-18.991 -79.735,-39.686 -118.144,-60.967c-60.588,-33.568 -117.922,-68.957 -164.768,-110.171c-5.336,-5.103 -13.812,-4.912 -18.914,0.424c-5.102,5.337 -4.912,13.812 0.425,18.915Z" style="fill:#1a1a1a;"/><path d="M673.721,1747.88c40.765,28.631 86.665,54.139 135.93,73.542c48.014,18.91 98.775,31.958 147.582,42.596c80.08,17.456 155.716,27.666 211.49,30.651c9.851,0.527 19.003,0.629 27.522,0.375c40.719,-1.215 64.475,-5.446 64.475,-5.446c3.413,0.122 6.283,-2.55 6.405,-5.963c0.122,-3.412 -2.55,-6.282 -5.963,-6.404c0,0 -23.46,-6.507 -63.81,-14.562c-12.644,-2.524 -26.933,-4.601 -42.588,-6.976c-65.954,-10.008 -155.128,-24.515 -245.342,-49.453c-30.249,-8.361 -60.519,-18.039 -90.467,-27.97c-46.011,-15.257 -91.018,-31.333 -131.124,-53.123c-6.273,-3.894 -14.527,-1.962 -18.421,4.312c-3.894,6.273 -1.962,14.527 4.311,18.421Z" style="fill:#1a1a1a;"/><path d="M1154.41,1330.4c-13.831,3.56 -26.787,7.212 -38.914,14.101c-12.13,6.89 -22.078,16.609 -31.204,25.62c-15.626,15.429 -28.743,30.306 -35.562,42.923c-1.342,2.484 -2.155,4.602 -2.718,6.964c-3.304,13.858 -2.136,19.173 -2.136,19.173c-1.948,2.805 -1.252,6.663 1.553,8.611c2.805,1.948 6.663,1.252 8.611,-1.553c0,0 6.345,0.278 19.146,-7.262c3.067,-1.807 5.877,-4.481 9.094,-7.464c13.181,-12.221 31.292,-28.498 51.532,-45.22c4.589,-3.793 8.965,-7.86 13.361,-12.095c6.845,-6.596 12.207,-13.665 19.474,-20.004c6.566,-3.377 9.155,-11.449 5.778,-18.015c-3.377,-6.566 -11.449,-9.156 -18.015,-5.779Z" style="fill:#1a1a1a;"/><path d="M1200.47,1385.78c-10.462,7.345 -19.512,14.999 -26.657,25.465c-6.828,10 -10.301,21.851 -13.3,32.831c-4.93,18.052 -8.064,35.145 -6.928,47.664c0.227,2.499 0.663,4.348 1.482,6.353c5.063,12.383 8.578,15.014 8.578,15.014c-0.144,3.411 2.51,6.298 5.922,6.441c3.412,0.143 6.298,-2.51 6.442,-5.922c-0,0 5.098,-1.653 12.105,-13.376c1.538,-2.573 2.481,-5.638 3.547,-9.151c4.348,-14.323 10.571,-33.377 18.47,-52.833c1.804,-4.441 3.207,-8.986 4.704,-13.611c2.411,-7.45 3.024,-14.512 6.166,-21.719c4.735,-5.666 3.979,-14.109 -1.687,-18.844c-5.666,-4.734 -14.11,-3.978 -18.844,1.688Z" style="fill:#1a1a1a;"/><path d="M641.163,529.99c9.043,1.515 16.787,4.311 25.559,5.841c5.647,0.984 11.169,1.731 16.69,2.097c24.694,1.637 46.982,3.089 63.32,4.267c4.064,0.293 7.621,0.577 10.864,0.038c14.239,-2.369 18.132,-6.605 18.132,-6.605c3.276,0.962 6.717,-0.917 7.679,-4.194c0.962,-3.277 -0.917,-6.718 -4.194,-7.68c0,0 -1.721,-4.426 -12.295,-13.31c-1.732,-1.455 -3.464,-2.56 -5.868,-3.643c-11.825,-5.326 -29.488,-8.708 -49.629,-11.48c-11.429,-1.573 -23.894,-3.421 -36.607,-2.009c-12.522,1.389 -23.837,5.667 -36.243,10.048c-7.349,0.715 -12.734,7.262 -12.019,14.611c0.716,7.348 7.263,12.734 14.611,12.019Z" style="fill:#1a1a1a;"/><path d="M522.421,646.115c12.412,-2.854 24.904,-3.85 37.895,-6.119c8.327,-1.454 16.597,-3.061 24.8,-4.954c34.921,-8.057 68.898,-14.786 93.923,-19.657c5.897,-1.148 11.238,-2.054 15.811,-3.785c16.821,-6.368 23.378,-12.504 23.378,-12.504c3.412,-0.144 6.065,-3.032 5.92,-6.443c-0.144,-3.412 -3.031,-6.065 -6.443,-5.921c-0,0 -6.584,-4.227 -22.681,-8.338c-2.995,-0.765 -6.05,-1.239 -9.633,-1.416c-19.131,-0.947 -45.28,2.086 -73.63,6.73c-16.941,2.776 -34.967,5.8 -51.946,12.122c-17.436,6.492 -32.852,15.998 -47.956,25.702c-6.784,2.914 -9.925,10.788 -7.01,17.572c2.914,6.784 10.788,9.925 17.572,7.011Z" style="fill:#1a1a1a;"/><path d="M454.463,770.304c12.735,-3.993 25.834,-6.375 39.349,-10.121c8.613,-2.388 17.166,-4.999 25.622,-7.91c35.664,-12.278 70.516,-23.87 96.088,-32.506c5.994,-2.025 11.451,-3.724 15.989,-6.16c16.447,-8.827 22.58,-16.071 22.58,-16.071c3.349,-0.666 5.528,-3.926 4.861,-7.276c-0.666,-3.349 -3.926,-5.527 -7.276,-4.86c0,-0 -7.577,-3.139 -24.57,-4.719c-3.191,-0.297 -6.42,-0.312 -10.122,0.049c-19.855,1.94 -46.392,8.693 -75.065,16.985c-17.16,4.962 -35.38,10.177 -52.253,18.333c-17.459,8.439 -32.627,19.583 -47.452,30.468c-6.564,3.38 -9.149,11.454 -5.769,18.018c3.38,6.565 11.454,9.15 18.018,5.77Z" style="fill:#1a1a1a;"/><path d="M482.164,877.135c0,-0 13.911,-2.669 31.663,-12.373c12.99,-7.101 26.859,-18.65 39.987,-29.034c9.569,-7.569 18.806,-14.561 25.073,-21.568c2.423,-2.71 3.922,-5.07 5.272,-7.723c5.47,-10.747 5.387,-15.105 5.387,-15.105c2.776,-1.99 3.414,-5.858 1.425,-8.634c-1.989,-2.775 -5.858,-3.414 -8.634,-1.425c0,0 -4.1,-1.479 -16.035,0.247c-2.945,0.426 -5.663,1.087 -9.008,2.512c-8.648,3.682 -18.238,10.182 -28.481,16.812c-14.052,9.095 -29.445,18.516 -40.343,28.536c-14.894,13.692 -21.891,26.007 -21.891,26.007c-6.002,4.301 -7.382,12.666 -3.081,18.667c4.301,6.002 12.665,7.382 18.666,3.081Z" style="fill:#1a1a1a;"/><path d="M1058.84,294.791c98.251,-9.108 226.857,15.047 348.77,61.302c115.885,43.968 225.991,108.039 295.895,187.404c79.38,88.376 161.824,200.55 211.07,337.616c40.736,113.381 58.763,243.867 32.966,392.213c-25.216,146.671 -111.681,307.193 -266.145,444.066c-50.196,44.479 -107.783,86.001 -172.225,124.895c-84.702,51.122 -181.194,97.659 -292.165,134.075c-3.276,0.962 -5.156,4.402 -4.195,7.679c0.961,3.277 4.402,5.157 7.679,4.196c114.978,-29.797 216.881,-69.024 305.139,-117.334c68.164,-37.311 127.911,-80.117 180.441,-125.225c164.727,-141.453 255.778,-310.809 283.885,-464.837c28.291,-156.74 10.215,-294.959 -32.339,-415.084c-50.805,-143.419 -136.609,-260.912 -219.301,-353.447c-75.597,-82.957 -192.621,-151.075 -316.833,-194.346c-128.307,-44.697 -263.673,-63.127 -365.616,-49.763c-7.338,0.82 -12.629,7.444 -11.808,14.782c0.821,7.338 7.444,12.629 14.782,11.808Z" style="fill:#1a1a1a;"/><path d="M1029.06,266.39c-146.704,21.606 -278.543,68.538 -393.041,146.565c-110.323,75.182 -204.072,179.222 -281.321,313.88c-95.418,169.338 -108.494,355.206 -75.752,526.362c37.236,194.65 133.649,369.918 231.979,479.305c86.403,95.721 210.056,174.378 347.075,218.428c131.956,42.422 275.401,52.672 405.661,23.897c3.354,-0.64 5.557,-3.883 4.916,-7.238c-0.64,-3.354 -3.883,-5.557 -7.238,-4.916c-127.844,20.625 -265.258,0.132 -391.846,-45.471c-128.99,-46.469 -247.145,-119.48 -328.355,-211.645c-93.305,-105.45 -183.788,-274.075 -218.342,-460.616c-29.866,-161.233 -17.897,-336.126 72.506,-495.124c72.189,-129.27 161.235,-228.346 264.706,-302.55c108.474,-77.792 232.949,-128.54 373.432,-154.482c7.284,-1.208 12.216,-8.103 11.008,-15.387c-1.209,-7.284 -8.104,-12.216 -15.388,-11.008Z" style="fill:#1a1a1a;"/><path d="M1137.54,2070.81c-207.582,17.679 -370.183,33.005 -384.969,35.994c-5.82,1.177 -9.705,6.698 -8.848,12.574c0.858,5.876 6.16,10.056 12.074,9.52c34.465,-3.145 96.389,-7.597 171.675,-12.573c-3.449,0.496 -5.699,0.912 -6.64,1.227c-4.733,1.577 -7.585,6.395 -6.692,11.303c0.893,4.908 5.259,8.412 10.243,8.222c69.482,-2.762 230.322,-11.973 365.079,-18.953c-91.018,12.203 -164.53,23.369 -180.831,27.101c-3.194,0.702 -5.281,3.78 -4.751,7.007c0.531,3.227 3.493,5.475 6.744,5.118c36.617,-4.415 88.5,-8.947 133.355,-12.006c23.021,-1.57 44.177,-2.761 60.426,-3.335c-4.888,1.54 -9.605,3.136 -14.084,4.724c-23.503,8.334 -40.405,16.597 -40.405,16.597c-1.534,0.749 -2.172,2.603 -1.422,4.138c0.749,1.534 2.603,2.171 4.137,1.422c0,0 16.63,-8.107 39.842,-15.936c12.423,-4.189 26.746,-8.247 41.367,-11.048c1.821,-0.369 3.1,-2.012 3.011,-3.868c-0.088,-1.855 -1.518,-3.369 -3.365,-3.563c-7.519,-0.875 -25.683,-0.849 -49.273,-0.158c68.178,-8.164 146.964,-17.092 219.051,-24.248c4.584,-0.485 8.079,-4.324 8.134,-8.933c0.055,-4.61 -3.349,-8.53 -7.92,-9.125c-7.891,-1.039 -40.816,-0.322 -87.714,1.508l187.837,-15.316c5.596,-0.464 9.878,-5.18 9.8,-10.795c-0.078,-5.614 -4.489,-10.21 -10.095,-10.518c-2.565,-0.143 -10.42,0.036 -22.688,0.501c69.168,-5.267 136.088,-10.145 197.625,-14.333c5.617,-0.379 10.012,-4.988 10.124,-10.616c0.112,-5.628 -4.097,-10.408 -9.694,-11.01c-16.335,-1.709 -301.067,11.544 -599.828,29.034c-229.529,13.437 -467.349,29.373 -597.613,42.042c-3.676,0.342 -6.382,3.605 -6.039,7.281c0.342,3.675 3.604,6.382 7.28,6.039c107.638,-9.588 288.699,-20.627 477.795,-30.896c25.68,-1.394 51.508,-2.774 77.272,-4.122Z" style="fill:#1a1a1a;"/><path d="M1445.61,2025.38c-0.313,1.021 -0.4,2.124 -0.221,3.241c0.591,3.696 3.897,6.336 7.633,6.095c-0,0 81.778,-4.429 140.952,-10.425c33.893,-3.435 60.196,-7.757 60.196,-7.757c1.135,-0.073 1.998,-1.055 1.925,-2.191c-0.073,-1.136 -1.055,-1.999 -2.191,-1.925c-0,-0 -26.64,-0.907 -60.694,0.042c-20.345,0.567 -43.291,1.656 -64.68,2.849c2.739,-1.532 4.295,-4.685 3.689,-7.905c-0.729,-3.873 -4.336,-6.518 -8.249,-6.049c-0,-0 -33.081,3.674 -70.486,8.72c-49.027,6.614 -105.451,15.409 -105.451,15.409c-2.444,0.293 -4.19,2.515 -3.897,4.959c0.293,2.443 2.514,4.189 4.958,3.897c0,-0 49.811,-4.187 96.516,-8.96Z" style="fill:#1a1a1a;"/><path d="M1945.27,1991.67c-0,0 62.507,-0.014 125.019,-1.6c22.783,-0.578 45.559,-1.365 65.304,-2.131c0.007,-0 -41.969,12.333 -41.969,12.333c-3.05,0.871 -5.022,3.82 -4.663,6.971c0.359,3.151 2.944,5.581 6.111,5.744c0,0 24.638,1.331 49.307,1.496c24.775,0.166 49.428,-0.836 49.428,-0.836c1.137,0.058 2.107,-0.817 2.166,-1.954c0.058,-1.137 -0.817,-2.107 -1.954,-2.166c0,0 -24.419,-3.532 -49.079,-5.914c-3.766,-0.364 -7.535,-0.7 -11.216,-1.009c-0.004,-0 63.199,-17.548 63.199,-17.548c3.531,-1.009 5.752,-4.494 5.177,-8.12c-0.576,-3.626 -3.768,-6.252 -7.437,-6.118c0,0 -62.491,1.416 -124.917,4.4c-62.461,2.986 -124.802,7.54 -124.802,7.54c-2.46,0.09 -4.383,2.16 -4.293,4.619c0.09,2.46 2.159,4.383 4.619,4.293Z" style="fill:#1a1a1a;"/><path d="M1886.16,1954.11c60.95,-14.145 155.476,-25.124 219.761,-39.678c36.598,-8.286 63.934,-19.04 73.911,-30.303c5.158,-5.854 4.96,-14.686 -0.454,-20.302c-28.127,-29.162 -79.614,-45.74 -142.938,-51.916c-31.828,-3.105 -66.695,-3.792 -102.809,-2.604c-78.816,2.594 -163.577,13.748 -236.005,23.931c-4.888,0.582 -8.384,5.022 -7.802,9.91c0.581,4.888 5.022,8.384 9.91,7.803c104.286,-10.525 234.257,-20.436 333.654,-9.317c45.549,5.096 84.602,13.991 110.449,31.39c-15.364,6.678 -40.103,12.006 -68.619,17.785c-73.78,14.952 -171.98,27.356 -222.749,43.871c-19.314,6.283 -32.495,14.031 -37.979,21.554c-2.87,3.894 -3.445,9.023 -1.508,13.455c1.938,4.432 6.092,7.493 10.899,8.031c44.562,4.581 105.014,3.486 164.175,-2.484c61.432,-6.2 121.117,-17.386 160.812,-24.004c2.262,-0.264 3.883,-2.314 3.62,-4.575c-0.264,-2.261 -2.314,-3.883 -4.575,-3.619c-34.342,2.206 -83.632,4.444 -135.805,6.977c-29.887,1.451 -60.639,3.333 -90.031,3.904c-12.276,0.238 -24.305,0.327 -35.917,0.191Z" style="fill:#1a1a1a;"/></g><path id="猫底" d="M152.208,1086.71c-2.304,4.502 -3.604,9.601 -3.604,15.002c0,41.405 -2.365,83.852 4.549,125.338c12.566,75.394 39.489,146.09 57.93,219.857c4.044,16.173 14.923,30.727 20.182,46.502c15.067,45.202 28.713,91.991 49.96,134.485c9.346,18.691 25.548,35.291 44.304,49.905c20.847,16.244 45.235,29.73 59.243,43.738c4.128,4.128 6.061,9.563 8.901,14.547c4.294,7.536 9.178,14.806 15.697,21.325c36.848,36.848 66.389,84.027 110.124,116.829c55.454,41.59 107.185,84.875 171.809,112.571c29.208,12.517 60.738,21.199 90.191,33.821c27.245,11.677 60.83,23.907 90.591,28.867c37.604,6.267 73.542,25.234 110.996,29.916c19.464,2.433 39.091,8.113 58.09,11.913c34.353,6.87 74.701,2.69 109.987,2.69c15.188,0 36.145,2.741 51.05,-0.985c62.794,-15.698 129.648,-23.722 193.176,-34.31c28.434,-4.739 52.685,-16.338 76.172,-29.308c18.527,-10.231 36.454,-21.473 56.951,-28.306c14.535,-4.845 27.671,-13.057 40.341,-21.507c7.719,-5.147 15.046,-10.62 23.203,-13.339c23.387,-7.796 42.537,-22.673 59.44,-38.142c11.125,-10.18 43.085,-58.641 57.466,-60.87c120.863,-18.737 330.628,-161.295 330.628,-215.215c-0,-0.774 90.161,-245.783 71.876,-400.83c-45.726,-193.888 -250.435,-416.312 -236.461,-534.526c28.704,-83.935 198.753,-42.601 236.677,-60.427c62.672,-29.459 74.733,-81.326 44.573,-123.643c-45.35,-63.629 -292.338,-34.246 -353.604,43.314c-88.008,111.413 -32.536,240.796 -38.401,246.661c-7.024,7.024 219.839,384.448 204.505,509.972c-20.332,166.436 -67.305,262.205 -130.127,280.081c-9.778,-121.332 -100.436,-200.506 -185.676,-225.799c-12.114,-3.594 -64.238,-4.532 -79.852,-4.532c-7.577,-0 -20.39,-2.542 -25.964,1.759c-4.085,-6.746 -8.18,-13.066 -10.816,-18.339c-5.674,-11.347 -5.833,-26.087 -4.105,-41.109c3.143,-27.333 13.877,-55.798 25.619,-73.412c33.097,-49.645 66.305,-66.338 113.28,-101.568c10.638,-7.979 20.874,-22.141 31.854,-27.631c3.193,-1.596 8.477,-5.061 13.87,-11.359c7.674,-8.961 20.162,-29.253 25.544,-44.706c6.692,-19.211 2.326,-35.232 -4.19,-44.358c-0.661,-2.972 -2.878,-12.722 -4.46,-18.062c-3.079,-10.388 -7.986,-19.582 -15.013,-26.609c-7.318,-7.318 -15.434,-21.33 -19.441,-29.344c-5.776,-11.552 -20.649,-29.278 -38.416,-46.416c-24.653,-23.78 -54.487,-46.874 -65.508,-52.384c-5.907,-2.953 -42.641,-22.516 -61.295,-26.184c-18.542,-3.646 -31.586,3.11 -38.294,9.818c-7.862,7.862 -12.296,18.546 -11.13,31.836c0.526,6 2.556,13.223 5.936,20.446c3.555,7.597 10.994,19.267 11.651,20.292c9.542,18.651 25.711,31.594 42.822,43.023c4.977,3.324 9.981,6.538 14.517,10.067c4.123,3.208 8.53,6.258 8.53,12.46l0.162,29.904c-0.337,0.599 -0.655,1.208 -0.953,1.826c-1.082,1.478 -2.054,3.065 -2.899,4.756c-7.084,14.168 -22.254,22.087 -38.343,28.274c-21.742,8.361 -46.093,12.473 -65.944,15.309c-67.514,9.644 -130.58,38.286 -189.448,67.72c-70.572,35.286 -110.635,78.505 -158.203,141.929c-12.228,16.303 -19.261,34.899 -25.502,54.366c-5.187,16.176 -9.292,33.41 -20.645,48.615c-2.269,-0.205 -4.383,-0.467 -5.157,-0.725c-30.388,-10.129 -67.017,-8.143 -98.772,-16.082c-13.863,-3.465 -34.82,-7.504 -52.951,-13.862c-7.519,-2.637 -14.683,-5.078 -18.834,-9.229c-10.15,-10.151 -22.075,-18.876 -34.02,-27.997c-2.841,-4.956 -6.377,-9.62 -10.607,-13.851c-6.471,-6.47 -13.955,-11.315 -21.944,-14.535c-32.212,-32.984 -52.897,-65.132 -51.92,-85.957c0.978,-20.825 40.558,-35.843 84.285,-24.911c17.766,4.441 26.261,5.575 51.471,5.864c15.624,0.18 51.971,-26.562 62.508,-31.831c10.729,-5.364 41.096,-22.318 60.867,-37.003c13.205,-9.808 22.219,-20.12 25.634,-26.951c8.46,-16.918 22.165,-40.892 38.517,-57.231c5.685,-5.68 10.712,-11.642 17.032,-11.642c1.299,0 2.58,-0.075 3.842,-0.222c0.784,0.989 1.632,1.942 2.545,2.855c3.892,3.892 14.857,11.127 28.326,15.562c12.713,4.185 27.29,5.826 37.923,3.707c10.029,-1.998 18.117,-6.71 24.095,-13.225c6.395,-6.969 11.088,-16.317 11.088,-29.38c0,0.359 -0.061,1.942 -0.061,1.942c0,-0 -0.678,-12.59 -1.504,-15.126c-2.006,-6.166 -5.231,-10.356 -8.101,-13.226c-23.728,-23.729 -33.576,-36.046 -79.9,-47.627c-6.331,-1.583 -31.173,-9.957 -45.224,-9.264c-10.507,0.519 -18.82,4.094 -24.896,8.923c-3.136,1.354 -17.132,7.44 -26.3,11.893c-11.24,5.459 -21.544,12.011 -28.185,18.652c-11.631,11.631 -29.207,32.878 -49.231,49.362c-6.341,5.22 -12.912,9.949 -19.658,13.272c-5.123,2.523 -10.154,4.869 -15.202,3.186c-33.259,-11.086 -87.916,-17.945 -119.823,-35.171c-20.306,-10.963 -63.657,3.668 -83.796,0c8.111,-11.52 60.111,-64.357 64.607,-77.844c6.518,-19.556 6.102,-42.495 1.612,-66.076c-4.992,-26.217 -15.256,-53.463 -18.816,-74.823c-2.038,-12.227 1.907,-23.253 4.669,-33.925c3.3,-12.747 6.029,-25.181 6.029,-37.517l0,-37.077c0.933,-2.777 1.629,-5.888 1.961,-9.34c0.509,-5.277 -0.174,-13.533 -0.97,-20.271c-0.154,-12.978 -0.991,-25.845 -0.991,-38.876l0,-9.225l-4.871,0c-1.361,-11.338 -3.119,-23.118 -5.648,-33.191c-1.31,-5.22 -2.892,-10.096 -4.679,-14.561c5.888,-12.974 9.049,-25.495 9.049,-36.289c-0,-18.214 -14.788,-33.002 -33.002,-33.002c-18.214,0 -33.002,14.788 -33.002,33.002c0,5.849 -4.518,12.399 -8.811,19.604c-4.75,7.972 -10.307,16.001 -15.791,23.582c-12.058,-1.396 -34.026,-0.035 -39.051,-0.3c-13.814,-0.727 -27.538,-0.723 -41.223,-0.364l-4.389,-0.663l-4.977,-0.727c-6.932,-1.505 -13.86,-3.125 -20.854,-4.68c-5.619,-1.249 -13.646,-2.281 -21.191,-3.066c1.6,-3.313 3.138,-6.472 4.603,-9.403c14.494,-28.988 36.135,-53.583 54.732,-79.619c11.739,-16.436 25.564,-32.34 38.977,-47.67c2.2,-2.514 4.548,-4.844 6.861,-7.195c4.205,-0.111 8.447,-1.039 12.501,-2.849c-0,0 18.002,-8.14 26.393,-13.303c18.394,-11.32 36.411,-23.565 54.304,-35.494c-0.268,0.179 -0.863,0.554 -0.863,0.554c0,-0 5.783,-6.212 10.508,-13.618c2.806,-1.948 5.982,-4.518 8.261,-6.406c10.371,-4.451 22.481,-7.341 32.132,-11.477c16.368,-7.015 29.523,-16.67 41.407,-27.467c3.501,-0.984 6.279,-1.703 6.279,-1.703c5.775,-1.523 10.805,-4.496 14.783,-8.434c7.682,-0.936 14.937,-4.692 21.66,-11.415c1.414,-1.414 11.366,-9.978 9.457,-27.325c-0.492,-4.47 -6.316,-25.111 -11.025,-31.189c-7.312,-9.437 -23.049,-11.654 -35.239,-10.435c-35.871,3.588 -156.527,27.915 -163.203,36.816c-8.136,10.847 -35.47,15.798 -45.937,24.957c-1.613,1.411 -3.21,2.827 -4.789,4.261c-6.822,5.199 -15.861,12.34 -18.433,15.627c-0.798,1.02 -1.513,2.034 -2.152,3.039c-31.725,18.7 -62.905,38.297 -92.609,60.575c-25.083,18.812 -44.093,50.903 -59.898,81.846c-3.888,3.076 -8.127,7.425 -11.972,12.778c-6.123,8.524 -12.059,20.349 -13.689,23.607c-7.457,14.916 -12.976,33.127 -18.228,51.514c-10.924,-25.858 -20.488,-51.762 -29.227,-73.609c-2.378,-5.946 -14.131,-30.804 -23.968,-47.52c1.139,-5.998 1.731,-11.421 1.731,-16.066c0,-18.214 -14.787,-33.001 -33.002,-33.001c-18.201,-0 -32.981,14.767 -33.001,32.963c-4.49,5.636 -7.175,12.775 -7.175,20.536c0,1.6 0.114,3.173 0.335,4.711c-1.468,3.698 -3.081,7.546 -4.742,11.476c-11.638,27.527 -27.996,57.376 -37.01,72.398c-39.816,66.36 -36.767,169.507 -19.091,240.212c3.875,15.499 8.665,31.795 13.9,47.794l-0.042,0.1c-19.37,29.196 -34.929,57.423 -47.996,96.624c-5.525,16.575 -3.595,35.381 -9.224,52.27c-3.02,9.06 -4.3,18.81 -4.683,28.855c-1.334,4.386 -2.254,8.585 -2.417,12.097c-0.299,6.389 0.712,12.024 2.604,16.897c-0.227,3.019 -0.717,5.959 -1.654,8.769c-8.763,26.29 -13.453,54.436 -20.181,81.349c-2.862,11.447 -4.759,26.256 -5.027,38.628c-1.118,4.261 -1.354,8.64 -0.762,12.89Zm499.348,-36.035c1.444,2.009 2.901,4.009 4.37,6.005c-0.001,-1.096 0.053,-2.188 0.16,-3.274c-1.514,-0.908 -3.024,-1.819 -4.53,-2.731Z" style="fill:#fff;"/><g id="猫阴影"><path d="M1573.81,1382.31c70.063,7.153 154.474,67.365 161.6,105.719c11.667,62.795 26.78,105.72 -22.075,229.731" style="fill:#b3b3b3;"/><path d="M1709.62,968c-6.846,2.083 14.047,53.504 3.71,75.75c-25.214,40.805 -177.596,141.881 -213.332,173.591c-108.499,96.277 -55.555,202.672 64.878,282.659c58.028,38.541 76.009,217.078 18.828,339.007c3.373,17.15 113.773,-80.082 113.773,-80.082c22.917,-66.612 15.337,-120.523 -0.475,-163.393c-26.438,-71.677 -184.003,-202.34 -158.189,-292.985c25.813,-90.646 141.794,-139.932 179.106,-189.841c17.815,-23.829 37.251,-59.547 36.486,-81.456c-0.753,-21.556 -37.94,-65.334 -44.785,-63.25Z" style="fill:#b3b3b3;"/><path d="M187.5,869.719c-96.703,709.296 608.366,1371.7 1376.28,983.197c51.848,-35.29 98.636,-70.03 130.133,-103.349c100.97,40.375 242.864,-23.104 296.809,-119.733c63.446,-113.647 107.95,-331.018 71.779,-504.834c68.968,118.201 43.505,274.769 12.636,395.907c-42.452,166.593 -142.279,302.387 -366.179,346.341c-40.947,45.816 -19.38,35.722 -94.512,77.491c-171.207,119.16 -392.501,171.515 -649.166,117.761c-221.293,-32.189 -542.522,-233.869 -672.152,-432.666c-129.629,-198.797 -186.913,-498.89 -105.627,-760.115Z" style="fill:#b3b3b3;"/><path d="M329.583,308.161c-0,0 -28.133,17.038 -55.336,75.889c-10.666,23.075 -19.304,53.145 -26.343,89.819c-7.34,38.249 -12.59,84.213 -12.13,138.509c0.35,41.214 5.316,86.558 12.143,137.622c2.402,-51.004 8.022,-95.756 12.555,-136.352c5.846,-52.369 12.343,-96.412 19.691,-133.486c6.903,-34.829 14.881,-63.1 20.963,-86.491c15.654,-60.209 28.457,-85.51 28.457,-85.51Z" style="fill:#b3b3b3;"/><path d="M748.75,300.142c-16.728,3.397 -37.724,-1.55 -54.734,7.355c-10.016,5.243 -29.505,19.846 -38.489,27.408c-16.214,13.647 -30.96,29.724 -44.315,45.939c-14.273,17.33 -26.11,35.325 -36.945,51.447c-5.302,9.297 -9.732,24.583 -17.395,37.584c-4.23,7.175 -6.914,13.623 -6.049,18.858c0.803,-4.865 5.098,-9.717 10.927,-14.81c11.744,-10.259 28.645,-20.204 36.815,-27.658c17.543,-19.046 39.359,-39.397 61.134,-60.641c13.558,-13.227 27.752,-25.977 40.612,-39.17c7.466,-7.659 13.425,-15.565 20.19,-23.124c7.68,-8.581 20.47,-15.981 28.249,-23.188Z" style="fill:#b3b3b3;"/><path d="M547.817,1018.24c0,-0 16.315,-2.385 41.699,-9.17c12.118,-3.239 25.853,-6.863 40.383,-12.793c24.565,-10.026 50.504,-24.85 74.456,-39.591c21.494,-13.229 40.985,-27.38 55.395,-40.871c16.879,-15.802 26.966,-31.083 28.173,-43.072c0.767,-11.025 -0.224,-20.172 -2.862,-28.559c-6.091,-19.365 -18.91,-33.057 -22.488,-55.911c-8.471,28.334 -12.553,66.558 -18.7,78.827c-8.749,21.409 -45.078,50.662 -65.585,67.161c-17.059,13.724 -39.393,21.266 -57.457,31.831c-8.039,4.701 -15.446,9.51 -22.353,14.336c-30.711,21.46 -50.661,37.812 -50.661,37.812Z" style="fill:#b3b3b3;"/><path d="M1100.99,1003.32c-3.7,6.997 -83.081,131.009 -208.604,158.234c-22.843,4.955 -47.053,-15.469 -69.534,-9.07c-23.731,6.754 -70.776,55.082 -72.848,49.597c-2.072,-5.484 32.986,-68.753 60.417,-82.503c27.43,-13.751 70.301,7.667 104.166,-0c67.179,-15.21 190.103,-123.254 186.403,-116.258Z" style="fill:#b3b3b3;"/><path d="M750,961.91c-6.961,-3.902 -157.748,31.199 -187.5,56.332c-24.163,20.411 7.016,102.197 8.985,94.464c6.435,-25.266 9.802,-81.456 30.598,-81.456c42.756,0 154.878,-65.439 147.917,-69.34Z" style="fill:#b3b3b3;"/><path d="M2132.92,535.315c29.269,64.736 -35.811,82.279 -133.332,103.447c-44.964,18.941 130.703,15.201 156.659,-28.164c59.35,-31.805 -29.279,-111.456 -23.327,-75.283Z" style="fill:#b3b3b3;"/><path d="M2046.19,644.118c-0,-0 -143.955,22.756 -154.12,66.268c-10.166,43.511 -16.355,73.178 30.629,184.382c-10.727,3.944 -118.282,-128.776 -70.5,-219.81c32.753,-62.404 193.991,-30.84 193.991,-30.84Z" style="fill:#b3b3b3;"/><path d="M703.463,270.78c-0,-0 25.958,11.497 42.636,15.505c16.679,4.009 40.805,-9.008 40.538,-5.963c-0.266,3.045 -22.822,13.316 -39.975,13.316c-25.33,0.228 -43.199,-22.858 -43.199,-22.858Z" style="fill:#b3b3b3;"/><path d="M1067.36,958.092c0,-0 46.522,40.782 53.388,43.824c-12.958,2.445 -26.706,-5.802 -35.604,-13.106c-8.898,-7.304 -17.784,-30.718 -17.784,-30.718Z" style="fill:#b3b3b3;"/><path d="M1544.61,943.091c38.237,23.826 20.195,12.395 46.698,15.123c-25.693,1.424 -8.421,13.553 -14.632,40.376c-27.223,48.017 -8.941,-20.614 -32.066,-55.499Z" style="fill:#b3b3b3;"/><path d="M1026.92,1366.59c-18.598,21.915 -1.468,134.265 -1.468,134.265c-0,0 33.852,-111.562 34.096,-133.939c0.119,-10.876 -27.941,-12.515 -32.628,-0.326Z" style="fill:#b3b3b3;"/><path d="M769.592,1185.82c-6.644,-6.109 -10.593,9.749 -5.235,17.012c32.136,72.623 89.985,109.667 89.459,97.143c-0.189,-4.508 -66.939,-98.262 -84.224,-114.155Z" style="fill:#b3b3b3;"/></g><g id="猫"><path d="M322.655,280.775c-31.041,26.6 -55.193,60.188 -72.18,98.143c-10.94,24.443 -18.516,50.715 -24.19,77.228c-15.878,74.193 -15.984,151.441 -10.793,208.379c1.182,12.973 2.556,24.871 4.593,35.376c6.366,32.838 14.094,51.98 14.094,51.98c0.443,2.523 2.851,4.211 5.373,3.768c2.523,-0.444 4.211,-2.851 3.768,-5.374c-0,0 0.853,-19.938 1.052,-52.632c0.063,-10.416 -0.363,-22.042 -0.647,-34.72c-1.232,-54.848 -0.207,-128.526 15.49,-199.618c5.424,-24.564 12.685,-48.706 21.449,-71.956c13.376,-35.488 30.296,-68.906 55.846,-96.058c4.006,-3.824 4.154,-10.18 0.33,-14.186c-3.823,-4.006 -10.18,-4.153 -14.185,-0.33Z" style="fill:#1a1a1a;"/><path d="M320.474,292.241c6.868,20.136 13.026,40.03 21.233,58.71c8.733,19.879 19.156,38.099 28.661,55.106c16.98,30.381 32.166,56.562 44.95,74.371c2.393,3.333 4.752,6.182 7.148,8.748c12.19,13.051 19.804,18.478 19.804,18.478c1.351,2.176 4.215,2.845 6.39,1.494c2.176,-1.351 2.846,-4.214 1.495,-6.39c-0,0 -1.228,-10.684 -8.227,-29.387c-2.051,-5.482 -5.16,-11.281 -8.474,-17.764c-13.688,-26.775 -32.694,-63.621 -54.247,-104.366c-4.796,-9.067 -9.9,-18.2 -15.354,-27.336c-8.008,-13.415 -16.824,-26.36 -25.162,-40.08c-2.323,-5.027 -8.289,-7.223 -13.316,-4.9c-5.027,2.322 -7.223,8.289 -4.901,13.316Z" style="fill:#1a1a1a;"/><path d="M749.135,419.95c-25.349,11.204 -50.048,27.212 -72.254,47.589c-13.899,12.755 -26.456,27.391 -38.249,42.397c-33.564,42.705 -60.502,89.637 -77.374,125.79c-3.918,8.396 -7.343,16.135 -9.723,23.326c-7.629,23.05 -9.058,37.401 -9.058,37.401c-0.991,2.362 0.121,5.084 2.483,6.075c2.362,0.991 5.084,-0.122 6.075,-2.483c-0,-0 9.03,-10.594 22.371,-30.194c4.146,-6.09 8.288,-13.182 12.87,-20.942c19.489,-33.007 46.133,-77.294 78.756,-118.028c11.135,-13.903 23.018,-27.283 34.929,-40.25c18.628,-20.278 37.304,-39.377 58.653,-52.994c4.881,-2.616 6.72,-8.702 4.104,-13.583c-2.615,-4.881 -8.702,-6.72 -13.583,-4.104Z" style="fill:#1a1a1a;"/><path d="M745.459,440.634c6.702,19.127 9.664,41.014 13.034,63.86c3.142,21.301 6.207,43.311 7.272,64.973c1.628,33.115 -0.935,64.834 -5.265,90.62c-0.664,3.952 -1.072,7.695 -1.526,11.403c-1.286,10.507 -1.67,19.174 -4.43,27.025c-1.429,2.125 -0.864,5.011 1.262,6.44c2.125,1.429 5.011,0.864 6.44,-1.261c7.169,-6.35 13.635,-14.05 19.637,-24.651c2.117,-3.74 3.803,-7.767 5.318,-12.123c9.397,-27.015 12.396,-62.355 11.628,-98.615c-0.496,-23.422 -2.441,-47.585 -8.009,-70.166c-6.046,-24.514 -16.013,-46.728 -27.132,-65.895c-2.315,-5.03 -8.279,-7.234 -13.309,-4.919c-5.031,2.315 -7.235,8.279 -4.92,13.309Z" style="fill:#1a1a1a;"/><path d="M216.675,748.288c-91.66,233.776 -102.031,446.002 -54.682,629.16c56.038,216.769 192.136,392.674 364.096,516.836c250.572,180.923 579.404,252.921 854.226,179.418c37.591,-10.054 74.141,-22.951 109.203,-38.837c81.404,-36.883 154.854,-89.293 216.82,-157.035c1.78,-1.841 1.731,-4.781 -0.11,-6.561c-1.84,-1.781 -4.781,-1.732 -6.561,0.109c-64.037,62.611 -138.746,108.769 -219.629,141.306c-34.506,13.881 -70.107,25.276 -106.6,34.328c-267.988,66.477 -585.27,-3.193 -827.941,-179.522c-165.562,-120.301 -295.435,-289.861 -351.651,-498.454c-47.94,-177.886 -43.033,-384.182 41.584,-613.613c1.969,-5.176 -0.634,-10.977 -5.81,-12.945c-5.176,-1.969 -10.976,0.634 -12.945,5.81Z" style="fill:#1a1a1a;"/><path d="M2136.6,529.495c25.798,15.668 37.467,54.251 17.015,81.834c-14.178,19.122 -43.141,31.959 -91.118,31.164c-69.779,-0.904 -118.111,6.294 -149.857,19.5c-47.139,19.609 -62.127,51.805 -57.73,92.132c5.913,54.23 53.658,127.211 105.866,207.569c61.562,94.755 129.671,200.647 129.831,299.952c0.362,98.036 -9.898,202.003 -34.752,290.455c-19.39,69.01 -47.454,128.571 -87.271,167.519c-33.134,33.458 -73.711,64.374 -117.381,89.382c-44.061,25.232 -91.165,44.596 -138.438,52.282c-2.542,0.311 -4.353,2.628 -4.042,5.17c0.311,2.542 2.627,4.353 5.169,4.042c49.469,-4.083 100.099,-19.469 147.286,-42.762c47.215,-23.305 90.624,-54.593 126.807,-88.032c43.487,-41.494 75.422,-104.974 97.083,-179.237c26.494,-90.83 37.752,-197.863 38.125,-298.819c0.175,-88.498 -48.733,-182.861 -103.399,-270.26c-58.921,-94.203 -124.742,-179.66 -132.067,-241.011c-3.109,-26.044 7.054,-46.277 37.249,-59.62c28.943,-12.789 73.303,-19.916 137.521,-20.748c59.397,-0.984 93.724,-20.571 110.479,-44.816c27.1,-39.214 10.272,-92.482 -26.248,-113.02c-4.781,-2.794 -10.931,-1.182 -13.726,3.598c-2.795,4.781 -1.183,10.931 3.598,13.726Z" style="fill:#1a1a1a;"/><path d="M2144.68,511.263c0,0 -27.979,-9.416 -59.022,-16.413c-13.798,-3.11 -28.189,-5.697 -41.066,-6.859c-109.796,-9.525 -190.474,17.642 -242.357,65.473c-63.817,58.831 -84.785,149.069 -64.277,243.264c19.597,87.658 104.176,202.944 159.796,324.876c21.309,46.715 38.304,94.422 44.815,142.036c7.441,53.39 3,107.922 -5.865,155.933c-4.086,22.133 -9.275,42.841 -14.399,61.54c-12.324,44.972 -25.289,77.831 -32.019,86.82c-12.538,17.214 -24.323,26.793 -36.271,32.527c-16.491,7.915 -32.796,9.143 -50.012,13.757c-2.502,0.549 -4.087,3.026 -3.538,5.527c0.549,2.502 3.025,4.087 5.527,3.539c18.43,-3.165 35.519,-3.157 53.536,-9.769c14.49,-5.318 29.385,-14.849 45.909,-33.346c8.023,-9.221 26.542,-43.163 42.327,-91.406c6.289,-19.222 11.859,-40.811 16.567,-63.812c10.383,-50.734 15.525,-108.561 8.449,-165.299c-6.439,-50.576 -23.702,-101.462 -45.955,-151.183c-53.699,-119.976 -137.179,-232.939 -155.971,-319.008c-18.369,-81.937 -1.163,-160.239 53.414,-212.558c46.279,-44.362 118.662,-70.268 218.638,-64.893c11.958,0.601 25.365,2.499 38.248,4.867c30.176,5.546 57.497,13.527 57.497,13.527c5.282,1.664 10.921,-1.273 12.585,-6.555c1.663,-5.282 -1.274,-10.921 -6.556,-12.585Z" style="fill:#1a1a1a;"/><path d="M1841.39,1591.52c-6.601,-31.317 -15.946,-59.758 -29.272,-84.545c-15.206,-28.281 -35.053,-51.621 -56.407,-70.835c-33.727,-30.347 -72.438,-51.026 -111.992,-58.571c-5.437,-1.037 -10.847,-1.751 -16.309,-1.986c-13.048,-0.563 -25.413,0.725 -37.965,2.857c-2.134,-0 -3.867,1.732 -3.867,3.867c-0,2.134 1.733,3.867 3.867,3.867c11.774,1.999 22.812,5.557 34.506,9.21c4.736,1.48 9.424,2.994 14.225,4.474c34.698,10.695 69,28.693 98.907,56.608c19.065,17.795 35.891,39.496 51.272,64.259c13.91,22.396 27.163,46.896 36.916,75.247c1.229,4.449 5.838,7.062 10.286,5.833c4.448,-1.228 7.061,-5.837 5.833,-10.285Z" style="fill:#1a1a1a;"/><path d="M898.592,179.651c-9.357,-10.832 -25.312,-16.786 -44.697,-19.498c-8.633,-1.208 -17.949,-1.72 -27.594,-1.634c-13.126,0.117 -26.823,1.494 -40.181,2.602c-30.847,3.139 -64.287,15.577 -89.546,31.614c-7.71,4.895 -14.977,9.772 -20.539,15.45c-11.934,12.186 -17.977,24.958 -18.014,35.431c-0.282,1.684 0.856,3.281 2.54,3.563c1.684,0.282 3.28,-0.856 3.562,-2.54c2.836,-8.428 12.547,-15.22 24.698,-23.409c8.934,-6.021 19.109,-12.725 30.69,-18.271c21.032,-10.074 45.572,-17.789 68.54,-19.456c15.143,-1.406 30.754,-2.475 45.37,-3.112c10.39,-0.453 20.217,-0.813 29.104,0.071c10.813,1.075 20.143,3.11 26.608,8.648c2.61,2.611 6.849,2.611 9.459,0c2.611,-2.61 2.611,-6.849 0,-9.459Z" style="fill:#1a1a1a;"/><path d="M718.547,177.353c-17.08,-0.772 -53.061,11.774 -93.612,35.707c-37.578,22.179 -78.919,54.256 -115.052,86.83c-26.445,23.839 -50.379,48.079 -66.268,71.008c-5.521,7.969 -10.082,15.691 -13.345,23.251c-7.042,16.321 -9.419,30.236 -7.105,41.321c0.068,2.56 2.201,4.584 4.762,4.517c2.56,-0.068 4.584,-2.202 4.516,-4.762c1.578,-10.939 11.327,-21.632 23.301,-35.881c18.518,-22.035 44.7,-49.155 75.393,-75.28c35.75,-30.43 76.495,-59.732 111.295,-83.44c34.139,-23.258 61.601,-41.894 76.542,-43.209c5.536,-0.118 9.935,-4.708 9.818,-10.244c-0.118,-5.537 -4.709,-9.936 -10.245,-9.818Z" style="fill:#1a1a1a;"/><path d="M740.249,300.59c-0.86,2.313 -3.723,4.073 -6.828,6.778c-6.48,5.645 -16.009,11.385 -26.851,18.39c-5.841,3.775 -12.058,7.73 -18.362,12.118c-13.795,9.603 -28.19,20.61 -41.846,31.824c-15.329,12.588 -29.402,25.876 -40.105,38.968c-11.352,14.73 -22.146,27.071 -29.845,38.835c-7.108,10.861 -10.698,20.384 -16.715,27.432c-2.094,1.474 -2.597,4.372 -1.122,6.466c1.474,2.094 4.371,2.597 6.465,1.123c9.575,-3.634 19.758,-8.489 30.815,-17.626c10.972,-9.067 21.067,-22.408 33.988,-36.099c18.482,-21.083 48.37,-40.84 73.472,-60.384c12.482,-9.718 23.682,-19.459 32.682,-28.328c14.031,-13.827 22.677,-26.074 23.754,-34.766c1.305,-5.382 -2.004,-10.811 -7.386,-12.116c-5.381,-1.305 -10.81,2.004 -12.116,7.385Z" style="fill:#1a1a1a;"/><path d="M887.587,189.7c5.832,19.999 -4.276,34.066 -19.576,46.404c-13.381,10.791 -30.849,20.389 -49.032,28.584c-19.516,8.796 -40.011,15.205 -55.26,22.964c-12.654,6.44 -21.249,13.342 -26.017,18.473c-1.384,1 -1.695,2.936 -0.695,4.319c1.001,1.384 2.936,1.696 4.32,0.695c5.883,-2.696 16.041,-3.268 28.767,-6.46c16.874,-4.233 37.285,-11.865 57.431,-20.107c20.639,-8.444 40.706,-18.74 55.103,-31.474c5.824,-5.151 10.811,-10.689 14.471,-16.678c9.31,-15.235 11.942,-32.371 3.039,-51.352c-1.278,-3.463 -5.128,-5.237 -8.591,-3.959c-3.464,1.278 -5.238,5.128 -3.96,8.591Z" style="fill:#1a1a1a;"/><path d="M846.809,232.005c-8.304,3.135 -16.872,3.104 -25.877,4.556c-13.542,2.183 -27.772,5.138 -42.13,10.545c-5.998,2.259 -12.449,4.339 -17.67,8.788c-3.753,3.199 -5.699,6.582 -8.624,10.936c-1.444,0.911 -1.877,2.823 -0.966,4.267c0.911,1.444 2.823,1.877 4.267,0.966c5.446,-0.9 9.61,-0.101 14.65,-1.13c9.142,-1.866 17.309,-5.04 25.651,-6.692c9.6,-1.902 18.963,-3.177 27.784,-5.409c3.188,-0.806 6.296,-1.726 9.264,-2.965c7.515,-3.138 14.078,-7.065 20.265,-12.233c3.209,-1.825 4.332,-5.912 2.507,-9.121c-1.825,-3.209 -5.912,-4.333 -9.121,-2.508Z" style="fill:#edc7dc;"/><path d="M870.472,195.7c-1.207,2.719 -3.938,3.083 -5.127,5.653c-1.469,3.179 -2.238,6.673 -2.87,10.612c-0.195,1.217 -0.127,1.959 0.232,3.183c0.997,3.4 0.944,1.564 2.763,4.746c-0.846,1.483 -0.329,3.374 1.154,4.22c1.483,0.846 3.374,0.329 4.22,-1.154c4.473,-0.38 3.643,1.267 7.411,-0.731c3.552,-1.884 4.872,-5.876 6.52,-9.067c1.424,-2.756 2.861,-5.703 2.62,-8.681c-0.314,-3.879 -1.244,-6.068 -3.562,-9.452c-0.185,-3.687 -3.329,-6.53 -7.016,-6.345c-3.688,0.185 -6.531,3.329 -6.345,7.016Z" style="fill:#edc7dc;"/><path d="M770.062,1189.31c12.888,32.137 26.679,59.653 43.405,82.225c20.737,27.986 45.006,48.377 70.19,64.001c38.319,23.773 80.269,37.147 125.307,40.084c5.573,0.363 11.116,0.45 16.762,0.121c13.048,-0.758 25.423,-2.984 38.718,-5.281c2.561,0.058 4.687,-1.973 4.745,-4.534c0.059,-2.56 -1.973,-4.686 -4.533,-4.745c-12.786,-2.815 -24.405,-6.425 -36.719,-9.46c-5.178,-1.276 -10.26,-2.424 -15.428,-3.433c-39.841,-7.78 -77.11,-18.575 -111.114,-40.68c-22.001,-14.302 -42.082,-33.24 -62.183,-56.629c-17.141,-19.944 -34.88,-42.392 -51.106,-70.449c-2.423,-4.979 -8.433,-7.055 -13.412,-4.632c-4.98,2.423 -7.055,8.433 -4.632,13.412Z" style="fill:#1a1a1a;"/><path d="M1168.9,984.13c-1.755,-0.405 -2.816,-2.146 -4.829,-3.29c-2.727,-1.551 -5.328,-3.815 -8.569,-5.725c-8.285,-4.884 -17.632,-10.273 -24.65,-14.281c-1.615,-0.922 -3.036,-1.748 -4.524,-2.136c-6.631,-1.726 -9.116,-0.495 -9.116,-0.495c-1.294,-1.115 -3.249,-0.97 -4.364,0.323c-1.114,1.294 -0.97,3.249 0.324,4.364c-0,-0 -0.598,2.373 2.211,8.34c0.645,1.372 1.645,2.554 2.89,3.915c5.231,5.72 13.555,12.125 22.004,17.204c3.332,2.003 6.711,3.91 10.161,4.854c7.761,2.122 14.394,2.161 19.563,0.26c3.679,-0.304 6.419,-3.538 6.116,-7.217c-0.304,-3.679 -3.538,-6.419 -7.217,-6.116Z" style="fill:#edc7dc;"/><path d="M1626.54,889.544c-2.106,-5.736 -3.426,-12.065 -7,-18.291c-3.387,-5.9 -8.567,-11.074 -14.52,-15.548c-7.42,-5.577 -16.498,-11.241 -28.172,-11.402c-1.365,-0.019 -2.563,0.018 -3.924,0.417c-3.523,1.033 -5.348,2.037 -8.862,4.002c-1.704,-0.097 -3.167,1.208 -3.264,2.913c-0.096,1.705 1.209,3.167 2.914,3.264c4.068,2.541 5.527,5.334 9.218,7.356c7.112,3.896 13.366,6.402 18.243,10.618c4.147,3.585 7.284,7.772 10.702,11.432c4.61,4.934 9.319,8.592 13.472,12.566c2.022,3.088 6.171,3.954 9.26,1.933c3.088,-2.022 3.955,-6.172 1.933,-9.26Z" style="fill:#edc7dc;"/><path d="M1545.92,834.665c-1.134,-4.366 -2.64,-6.817 -5.785,-9.655c-2.882,-2.601 -7.226,-3.274 -11.469,-3.212c-4.308,0.063 -10.292,-0.588 -14.004,3.799c-2.709,3.201 -1.552,2.92 -2.61,7.524c-1.563,0.686 -2.276,2.512 -1.59,4.076c0.686,1.563 2.512,2.276 4.076,1.59c2.921,1.96 1.279,2.092 4.259,3.395c1.08,0.473 1.704,0.843 2.785,0.926c1.671,0.128 3.064,0.407 4.448,0.484c1.624,0.09 2.899,0.628 4.269,0.946c2.227,0.518 3.687,-1.208 6.029,-0.548c2.574,2.647 6.812,2.707 9.459,0.133c2.647,-2.573 2.707,-6.811 0.133,-9.458Z" style="fill:#edc7dc;"/><path d="M1204.07,977.827c0,-0 0.149,-2.575 -4.082,-5.059c-1.926,-1.131 -4.822,-1.168 -7.345,-1.262c-1.982,-0.073 -3.807,-0.226 -5.154,0.495c-7.824,4.192 -4.421,5.434 -4.421,5.434c-1.677,-0.323 -3.301,0.775 -3.624,2.452c-0.324,1.676 0.775,3.3 2.451,3.623c0,0 -3.621,-0.112 2.082,6.689c0.982,1.171 2.733,1.709 4.6,2.378c2.377,0.852 5.079,1.895 7.287,1.562c4.852,-0.732 5.671,-3.177 5.671,-3.177c3.625,0.7 7.136,-1.675 7.836,-5.3c0.699,-3.625 -1.676,-7.136 -5.301,-7.835Z" style="fill:#edc7dc;"/><path d="M1191.96,947.451c-0,-0 -1.757,-2.192 -6.829,-1.972c-2.577,0.112 -5.452,1.74 -8.033,3.096c-1.988,1.045 -3.93,1.902 -4.889,3.342c-4.58,6.871 -1.477,7.111 -1.477,7.111c-1.604,0.585 -2.431,2.363 -1.845,3.967c0.585,1.604 2.363,2.431 3.967,1.845c-0,0 -2.219,2.183 5.711,4.487c1.661,0.483 3.698,-0.112 5.892,-0.594c2.848,-0.626 6.095,-1.233 8.138,-2.808c4.021,-3.1 3.952,-5.908 3.952,-5.908c3.468,-1.266 5.256,-5.109 3.99,-8.577c-1.266,-3.468 -5.11,-5.255 -8.577,-3.989Z" style="fill:#edc7dc;"/><path d="M752.032,690.251c-3.108,58.915 5.42,96.507 15.172,123.669c6.939,19.324 14.843,32.529 17.418,45.304c1.761,8.74 -0.04,16.945 -7.234,27.975c-14.617,22.808 -27.313,39.181 -52.516,54.472c-22.65,13.742 -55.14,25.349 -105.28,42.674c-9.274,3.204 -18.994,6.725 -29.312,10.823c-13.713,5.446 -27.721,11.949 -43.619,18.58c-2.48,0.638 -3.976,3.169 -3.338,5.65c0.638,2.48 3.169,3.976 5.65,3.338c25.409,-3.099 47.552,-4.964 67.438,-9.025c43.502,-8.883 74.246,-21.052 98.029,-31.192c49.72,-21.199 68.493,-43.124 91.077,-76.945c13.596,-20.782 15.529,-36.682 12.073,-53.134c-2.998,-14.272 -10.841,-29.424 -19.921,-50.529c-10.486,-24.373 -22.712,-57.495 -25.57,-111.66c-0,-5.537 -4.496,-10.033 -10.034,-10.033c-5.537,-0 -10.033,4.496 -10.033,10.033Z" style="fill:#1a1a1a;"/><path d="M1041.51,1505.35c12.345,-76.534 37.102,-142.144 66.936,-198.126c36.831,-69.111 82.309,-123.26 129.211,-160.637c15.589,-12.601 34.842,-23.002 55.967,-32.049c57.834,-24.769 129.375,-39.048 183.754,-54.748c37.349,-10.784 66.997,-22.876 81.407,-37.647c22.62,-23.706 22.383,-42.221 9.9,-61.412c-14.269,-21.937 -50.217,-44.362 -78.255,-88.537c-1.217,-2.253 -4.034,-3.095 -6.288,-1.879c-2.254,1.217 -3.096,4.034 -1.879,6.288c21.23,46.98 52.133,74.357 64.102,97.196c5.017,9.575 3.657,17.707 -7.536,28.387c-11.038,10.762 -32.846,18.121 -59.76,25.741c-47.063,13.324 -109.102,25.195 -164.698,43.804c-37.33,12.496 -71.744,28.198 -97.624,48.767c-49.802,40.149 -100.005,97.111 -136.975,172.014c-29.281,59.324 -49.821,129.786 -58.156,210.204c-0.726,5.49 3.141,10.537 8.63,11.264c5.49,0.726 10.537,-3.141 11.264,-8.63Z" style="fill:#1a1a1a;"/><path d="M1716.68,1720.19c15.092,-53.947 8.777,-102.188 -8.596,-145.829c-25.482,-64.007 -75.047,-117.849 -112.821,-165.949c-29.176,-37.152 -52.939,-69.318 -43.011,-102.625c10.851,-36.845 41.318,-67.79 74.797,-96.556c35.782,-30.746 75.316,-58.772 102.868,-86.671c20.819,-21.081 34.969,-42.486 38.293,-64.408c5.241,-35.413 -11.187,-73.054 -38.716,-106.88c-10.096,-12.404 -21.564,-24.326 -33.735,-35.375c-31.201,-28.325 -65.955,-51.359 -89.006,-67.339c-2.003,-1.596 -4.925,-1.265 -6.521,0.738c-1.596,2.003 -1.265,4.925 0.738,6.521c20.322,18.525 50.225,46.182 77.772,76.973c10.248,11.455 20.135,23.282 29,35.324c20.648,28.049 35.793,57.155 30.974,85.335c-4.263,25.528 -29.517,48.223 -59.53,72.739c-40.011,32.681 -89.306,66.802 -122.912,106.675c-16.514,19.595 -29.298,40.624 -36.165,63.331c-12.686,42.451 10.996,86.337 48.846,133.177c36.921,45.69 86.276,95.512 113.335,155.898c17.213,38.414 25.705,81.03 14.921,130.06c-1.342,5.373 1.931,10.824 7.304,12.165c5.373,1.342 10.824,-1.931 12.165,-7.304Z" style="fill:#1a1a1a;"/><path d="M1492.58,871.972c-2.355,-8.521 -3.097,-15.635 -3.344,-21.65c-0.688,-16.734 10.323,-20.146 25.056,-19.12c22.505,1.566 51.823,12.994 73.987,24.943c4.247,2.29 8.199,4.529 11.989,6.506c7.519,3.92 13.793,6.424 17.743,10.101c0.952,1.417 2.875,1.795 4.293,0.843c1.417,-0.952 1.795,-2.876 0.843,-4.293c-2.217,-5.855 -6.31,-12.634 -13.163,-19.691c-3.32,-3.419 -7.426,-6.472 -11.848,-9.536c-23.381,-16.2 -57.015,-29.932 -82.462,-31.297c-29.174,-1.565 -50.552,10.971 -44.605,43.564c1.288,7.057 4.242,15.113 9.046,24.487c1.34,3.44 5.221,5.145 8.661,3.804c3.44,-1.34 5.144,-5.221 3.804,-8.661Z" style="fill:#1a1a1a;"/><path d="M734.049,967.547c47.574,2.278 76.76,15.394 99.449,27.439c16.91,8.976 30.568,17.384 44.431,21.864c15.021,4.855 30.318,5.448 48.897,-1.011c44.911,-16.132 87.914,-71.941 128.943,-100.662c9.855,-6.898 19.399,-12.212 29.119,-13.51c0.009,-0.002 0.018,-0.003 0.028,-0.004c33.881,-4.828 74.327,8.309 101.611,27.847c21.156,15.15 35.57,33.862 28.392,57.615c-1.003,2.357 0.095,5.084 2.452,6.087c2.356,1.003 5.084,-0.095 6.087,-2.452c15.947,-28.418 5.004,-58.664 -20.014,-81.94c-29.889,-27.809 -80.94,-42.491 -122.351,-38.184c-14.299,1.563 -28.935,8.097 -43.582,17.996c-39.284,26.548 -79.266,80.6 -121.918,95.492c-15.63,5.712 -27.306,2.108 -40.569,-3.647c-20.481,-8.886 -43.71,-22.473 -79.663,-29.291c-17.224,-3.266 -37.261,-4.933 -61.303,-3.705c-5.538,-0.003 -10.036,4.491 -10.038,10.029c-0.002,5.537 4.492,10.035 10.029,10.037Z" style="fill:#1a1a1a;"/><path d="M753.898,1243.14c6.379,-16.3 19.119,-32.117 32.533,-45.197c14.668,-14.303 29.685,-26.008 39.039,-24.972c5.528,0.462 10.935,1.763 16.282,3.213c9.582,2.599 18.934,5.934 27.931,8.548c0.613,0.178 1.235,0.32 1.864,0.427c17.782,2.978 37.647,-0.181 57.467,-6.953c25.027,-8.551 50.095,-22.687 70.258,-33.261c22.309,-11.981 58.26,-45.618 85.434,-82.585c4.693,-6.385 9.089,-12.829 12.888,-19.421c10.609,-18.404 17.698,-36.106 21.462,-50.581c0.991,-2.362 -0.122,-5.084 -2.484,-6.074c-2.361,-0.991 -5.083,0.122 -6.074,2.484c-8.789,15.041 -25.346,31.785 -42.605,50.602c-9.818,10.704 -19.367,22.286 -29.469,32.634c-19.772,20.253 -39.551,37.456 -53.759,44.447c-19.057,9.546 -42.749,22.335 -66.272,30.066c-13.947,4.584 -27.773,7.512 -40.293,5.603c-8.98,-2.642 -18.259,-6.034 -27.825,-8.455c-7.403,-1.872 -14.956,-3.204 -22.593,-3.593c-12.869,-0.326 -34.144,9.907 -52.741,29.281c-17.661,18.399 -33.986,43.567 -40.15,67.652c-1.692,5.273 1.214,10.928 6.486,12.621c5.273,1.692 10.928,-1.214 12.621,-6.486Z" style="fill:#1a1a1a;"/><path d="M1212.2,986.244c-6.572,8.569 -13.33,13.644 -19.609,17.48c-7.138,4.361 -14.058,5.61 -21.173,5.028c-18.375,-1.505 -36.75,-14.229 -53.133,-22.121c-3.634,-1.751 -7.088,-3.376 -10.582,-4.252c-7.375,-1.851 -13.275,-2.02 -18.661,-0.706c-1.704,-0.108 -3.175,1.188 -3.283,2.892c-0.108,1.704 1.188,3.175 2.892,3.283c4.152,1.59 7.09,5.345 11.876,9.123c2.545,2.009 5.336,3.947 8.338,5.99c17.483,11.897 39.352,26.267 60.706,28.181c9.861,0.884 19.974,-0.484 29.171,-6.208c9.423,-5.864 17.98,-15.951 24.998,-31.922c1.868,-3.185 0.799,-7.287 -2.386,-9.154c-3.184,-1.868 -7.286,-0.799 -9.154,2.386Z" style="fill:#1a1a1a;"/><path d="M642.624,503.798c-24.175,-10.981 -50.137,-18.691 -77.048,-21.642c-26.595,-2.916 -53.647,-1.073 -79.195,2.009c-41.62,5.019 -79.844,14.053 -106.832,23.894c-4.773,1.74 -9.056,3.594 -12.974,5.587c-19.004,9.666 -28.61,17.394 -28.61,17.394c-2.389,0.923 -3.58,3.611 -2.657,6.001c0.922,2.389 3.611,3.58 6,2.657c0,0 12.194,-0.211 33.177,-3.103c6.437,-0.886 13.506,-2.406 21.301,-4.042c32.71,-6.866 76.968,-15.563 123.632,-17.484c15.49,-0.638 31.197,-0.41 46.879,0.018c23.676,0.646 47.12,1.712 69.59,7.614c5.216,1.859 10.961,-0.867 12.82,-6.083c1.859,-5.216 -0.867,-10.961 -6.083,-12.82Z" style="fill:#1a1a1a;"/><path d="M642.624,503.798c-24.175,-10.981 -50.137,-18.691 -77.048,-21.642c-26.595,-2.916 -53.647,-1.073 -79.195,2.009c-41.62,5.019 -79.844,14.053 -106.832,23.894c-4.773,1.74 -9.056,3.594 -12.974,5.587c-19.004,9.666 -28.61,17.394 -28.61,17.394c-2.389,0.923 -3.58,3.611 -2.657,6.001c0.922,2.389 3.611,3.58 6,2.657c0,0 12.194,-0.211 33.177,-3.103c6.437,-0.886 13.506,-2.406 21.301,-4.042c32.71,-6.866 76.968,-15.563 123.632,-17.484c15.49,-0.638 31.197,-0.41 46.879,0.018c23.676,0.646 47.12,1.712 69.59,7.614c5.216,1.859 10.961,-0.867 12.82,-6.083c1.859,-5.216 -0.867,-10.961 -6.083,-12.82Z" style="fill:#1a1a1a;"/></g><defs><filter id="_Effect1" filterUnits="userSpaceOnUse" x="1.04167" y="25.2083" width="2367.88" height="2310.69"><feGaussianBlur in="SourceGraphic" stdDeviation="25"/></filter></defs></svg>